<mxfile host="65bd71144e">
    <diagram id="Ax6Oc_r-FqXCY1SOTfIV" name="Page-1">
        <mxGraphModel dx="3662" dy="1038" grid="1" gridSize="10" guides="1" tooltips="1" connect="1" arrows="1" fold="1" page="1" pageScale="1" pageWidth="850" pageHeight="1100" background="#ffffff" math="0" shadow="0" adaptiveColors="auto">
            <root>
                <mxCell id="0"/>
                <mxCell id="1" parent="0"/>
                <mxCell id="6" value="" style="shape=image;verticalLabelPosition=bottom;labelBackgroundColor=default;verticalAlign=top;aspect=fixed;imageAspect=0;image=data:image/png,iVBORw0KGgoAAAANSUhEUgAAAOYAAAB2CAYAAADcDO/4AAAAAXNSR0IArs4c6QAAAARnQU1BAACxjwv8YQUAAAAJcEhZcwAADsMAAA7DAcdvqGQAAB9sSURBVHhe7Z1/eBXVmce/k3AhQMsPIUogrfwQhRDgcm0fbEK4WFqLuxUxscg+dqVJdUVlS7NWn0XkWZ5NQ/vQp6Z0wSZrvSm2PEXaBAVWLRglkKTmYQnhZ8EISwUMNmiQlhC4JLN/nJkz58y8Z3JzE5oA55OHh7kz3/OdOXPnzDkzd953DOPmO0xoNJpeRYJ7hkaj6Xl0w9RoeiG6YWo0vRDD7xozIcFAgpEAE0xiwIBpmjAM9gkATJgwiGlYZUyinPbTfu5p7Sf7KRtmQkICEphSo9H8nVEOZXWj1Gh6DmXDNK0/e1qFuEyls720nxft50X7+Qxl+yQmumdpNJq/E8oeMx5UZ4R40X5dQ/t1jZ7082mYsZo4OueOE0Vn/ApRXrMT+9Y8BACIZpeipqYS7/77YZfOS35ZlVLXue1j21BfXWn9ewuvffMjAHkoqdiG1775EfcLFVegfs18V3nZL1RcIXhV4vDG5zy6zm2fCrWfuA3yPnLqemD7i8htbReWqf2iyzdJdZI9Vaj95P3Y9frKXFt+Pg2zZ0lsacWVm8cDAKbfMwjNpy+7JX8HGlE5NgPBzDDyDgQwbslryG2N9Qsh2LsWwcwwgplVOJI6J8YDufuoWzQbwcww1p1xX6YsQ3bGTEz66XG0uJaoiGaXYve9l/j+CWbOxN0/TnPLNHHi0zD9WrdI9+ui2SMxwvwA+xOCWN34HSwe3oSqswkYmroC4Gd++Qxvn70XjmjD0PuarLP4BqxuvAJ4zu4bsLoxyucf3vgLlFRUeZaJ1G77EH8deBOCzbE2TL/6LsOuRrs+hrLnyS+rEnoQprPry3qXEqKnM6Se0dsDdha/eojYukKU1/zBGl0wxHpEl78m1JWNQuwRUWRyH2DaU9Yyx8Ne7v5+8suq8D+/+z2bb+0LdX07W4+OuLo6n4bpRd5B8hfvPrjq+XAtDyUVu1zL7GGhmsTm0/jnfX0wsfwrSP34XfznR+cBqyGtG3cUq+/MQjAzjIXH7sAzm59HoOAB3hs0b0m2zuILsCQlIJzdv4JgZhiT3uqHrx58iX+Bl0eNwS1F46yeMRnhsoddWwNMv+eLGHJqP5akJADoj9FLG3h9IpP7uOUdUIislAs48dbPAIBv+9TMmQhmVqF57gGsboxi1foGXLpjFt/OZ4PJOFsxC6VJ1tc2bTBOjmF1ipyfgkdWHJH2z9TMmXz/dAfiNVKgPBe/a0xF+HiNMCwHgGX44f4+GD3n+9bnQmSlnEZlznoAeYjMGogTPxpv1fcbmLd1JALlucjICCPvwBVhVDEH87aOBFCILT8YgN1jWM/s/u6+OKQJz7z5KTDtViSs3IGGgcMQbG4TtkcmnuNUXaZzdOYaU3lEmcQTC4HyXGSU2+bWMtOEkZSAQMEDmFrgfbIBMPD47AjhN9Kjg+Vn06fgMP5W8yUkrCwCpi0AAEwfNQhtR3+LSBJzq932If76xCjktrY7B6yAaZrApCEYcmo3vpcSgAEgUHAYDTW3IdjMetO+p3fi/q0pMKzh3lSYMDAVQArCx2tQDyCx5RB+kvVDmP0eBXARJ36UbpVhPVSErc2ph6u+AKze4CkAQPPmZNy9NQ2maeJKzq+w+wdjMcCuutmIkzARKN+F+qcW4P4HzyCytRSzBh/AKysmwEyyhHvLsSSlDwATRTkzUIQ0fKmY7R+2L0xr/6Qit7XNmuc9g4vbyurgfAfsiRRvGbbOTBTBYD1i9TfQvCUZd/84DbXbTuDSE7OQ27oB/12YhrF1v0V2SgBABEeb8zB9aQPeTU/GrB9PlPxE7G2KLk/DWPMmjLW+BwBAi3NSP1sxC28EjmL16Z24f+tAbOLtxXVc2cdwR8epUF/7OA1sfQDBAtrPPe1Zr8/+Y3g9TJjqHlO8ULWnWY+5kw8j66srcfBtp8fcJ8yvr96JwxuX8TORuGyfMExhGyasS6rDc8jOYGdVAOh78218ibh91MFmQ+4TjreO8rRzjTn560+iNCmha368Nwjz6zHD+C4iT92GAXVreY953LD3SQR5Oy5g9Jzv48ryNAx6O8y2wVN357P76tFB1on4+anr6+iKcmZg0lufYvjsHchtbUeg/LvYcH487n/wDJ4NXrF6S8YLD2YimBnG5i9/in3VO4XrbHlF4jb1Pf0Hvt/Yd/EUeRKWcdXDmu7wOBVu+NnHKesx5eP+TxuXebztT53df+yTPN1R7STsIQe1k+zhmPgvbf5KABE8PpsNO51/9jCFwgAmDcEA6SzkUHv6PBLF4d3D4/H55lPSF2VfizIM4NA5nEudgp9b15uh4rsw/sInqB+qPoxjgdq+eGk+tQIGDISK78JYYdQQKDiMP0+4G7+eegX7l7CbYX6I+8eAQe6fzkEfPG6mjxokfV5V/zeMnrMFX2uvx5KUgLCEeRTlzEDegSuu70o++cKq/5HUcIeXPpC2VE08x6m6TCzEtv/cKL8tcTzsNzamdJSe0lFQOnFeoOABRM5PwZI97Hogb9B+rJpbwJevWt+AlpB9A2EDVjdeRqA8F4v3J7NhaXUlIpOb8E76Y9LBSq2XQlxi66grmtj9XkbejrP8hlXkygdWj2mzDDs+m4y72vfyA9zPr0/BPOX+YUNO8QaZffPlZdTUVOLQ02PRb8AkLNmzi19DUfUwYXquu8R9asJEoOAwjocmYsAe8Xpd/gkqMrkJlTnruW/dovdwJHWOtdy+D7EM973ZIl3Te3+aYohb6oaqBwWlo/SUjoLSUXq3Tj/50+vJQ0nFAtxSlO4zyuh9RLNLUffERRRnLepCb33johtmryUPJRW5mJ7Uzm+qXAtEs0utG1mNqByb4xrGamLFp2HSd/C8mFpHonU0Wkcj6/QYQ6Pphfg0zFhaObROidbRaB2NrPNpmBqNpqdQNkz2BI7Jpq0/93x7GTXNNHQ57Ud7aD+63I3o53PzR9+V1Wh6CmWPqdFoeg5lw5S6Z6kLllF31Q62l/bzov28aL8OHmK3n+2Tn/GzH6tij0y5H76lsL28fu4sAZXY8e9/kspRqPyoCP2ubZ+X+Py+i5IK5zE3Xu818+P0o3WIe/toHbrgR2d1iN9PxfXqp2yYFCy6ZBxOjtnpep6ToToj+ONEcASFqAvE4aeO0Gd01q8jOud3ES34ghWJk4Z+pz92Czrp1zHar2v0pJ/PzR+/J38KUV7zJSSsnIx5W1N8dCImoStEec1tODkmW3h0y0Q0+1eoe2IAzhgpuLX/Rzi4bzjSpwbQvCUZM96vxb4FrdgzLB3Tk9qthi0/+pVfVoW5u2+yGjlbb3T5Jhyac5OlsMus8tQjv6wKCxt/juDijcLjZWKZPo5uhPX4+t61CC7eyNfPEOvL6tlSn4jPvZGBytxqDN2TiAeD/4u0+YWILn9N2DbwR/Ci2aXKusr1ccoAJkLF77iCt+1yj/PH/MQy+WVV+Fp7I0aNvBnYewTHQxMx/sJBvJC1CKVJBvLLqom6FuL1t2/CJ+cmI5TSZsWoTsE/9v2DHFsK8GXsWV/qOKC4sXWd6jGvDlYwMh+CsqFs28ARGPT2L1DbOgqh4e9IIUKXU9Nw+/ZhCFoZB76+6z9cnjLu/DROFPxSn2h7deR8qLiCNd7MMIKZ61A78V87zN+T2PIpXt92HgPuZaFQS498hhbri5DDipwMBpDqOhPrzqTy7AqqMtHsCNZMabLqug61rQlo3jIFS1ICyC/L4/uNlTnJw6lUmQBCxe8o69o2YBJCZ9iyvAMB3P7Img6yEWhixadhxtLK0Q06eiibeOEQXlmRBOAi3n9lsVSCLZsA2BkMhqYq8ryArXfSECstCOtVAwWH+YFXu+1DK32HyaLl68qsHikNY80R/KTh9E6P4vHxfYXcNAt5DyTjre/nNuzC/01Ic4VCGa6ULTOkeEynrgYqmy7x+eoyqq+0EFkp7UI+JHk9Zytm4Q2DZXOYt9W+FHisg7o28iDo2tMs9UvHePcLzY2tU32LcdGZMXQsxOQ2aQgGuOcpoLYvUJ6rjLb3Rs4/idIkwxqajbcyDnivjdW8jMdnZ3Ft29BRyG3NVWQw8COPl7F7P7tMoPwjnMFI64SyEFmfvClsm3wSjK0nY3UN8pxEsda1Y6jvoytcT37KhimayIayOXtiwYEF47IAZVGr9mNz+JTLT4Xt8WwwGW1Hdwgxf8T28QwGbHjIMhicRf1QVoZF22/m0famFejLIudPubbvZZQ0JOL2R9bwedYSZX2j2SMwgtfLpbMmm0/ZGQDtDAYmAKd3kvcfg5UxpawH0eVpmHDqLd6QnEj757CrcRQfCnu/A4qX8CJZV39sb5aNwF1f1XpdOsW0R3ed+ikbJn2btxDlNbusYVASRi9t4Dl/vBhS90z7wbrG/KPzc8lS5+cSFW0DJ+H7e1g0/mNtb/AbL+yksFOK0H/9vtNCBgO2HhZt/y8oTWJDNhZt7wwx2fbZkfPHnFwva+bDMIC6Reuxa9i9Qu4YO02mqo7ibnbtF+OXPIPBvuqdQgYDQyon77+IkPVALGOn4mBZAOztYz/TGCjKqcTx0GK+TJ3q0WGfVVfHj07vKWLAELIR7JRSUaoHA7EeL+79JyySuLb9fO7K0j859DRXIzL+anj2FKHiCkSulPCTFbuz3B+7x+ig5WsJ5VHo7lpVUDpKT+koKB2lp3QUlM7+376Bcujp/ngv/VHeKOP1E6F0FJSO0lM6itptJ4ScR5U49HQK/rJyhqdRxupH6Sg9paOgdJSe0lFQOkpP6SgoHaWndBSUjtK7dddcj6nR3Agoe0yNRtNz+DRMsiMl0DoaraPROhpZ59MwNRpNT+HTMJX3eV1oHY3W0WgdjazzaZgajaanUDZMdw4SfqtXmG8vo6aZhi6n/WgP7UeXuxH99M8lGk0vpNMNU4wDTGw5ZMXsKTteX+R4R5CxlVcbKa5Riqt0XlEQ63Yxr/489jBUXMFenBND2WsTKp5W0x0oW5TUPfMuOA+RWVEe61eTMBlLfsleKCvrZGwvrx8La7LfDr3uTKoUWxmPnxtxGaULFDzA3rx8gL2iD1xnv5ZNjvboyO9Si4HB6edgIg+Lh3+KP180+BCFoiM/dHN9cRX8REf7k4pY/Lp7+65FP2XDNKw/e5oRweOz51tnxwhKGi57ylDYXl4/mVX1TWizYivdLxi1g3Pzy6qwb81D3C+6fBMObv8FD2CuX1PC8wgd2P4i8lpZZWU/+UFsA4b0wlfV9sG1zK2bPmoQ+h09gZY71+NKdhZSP96PM8ZQ3PrYWVf8pPMqOQMG8su24zcv/t7ZPp4rx3np777qnbyebL3efEl2DiH7FXnig+rR7FLUbn8Vr7+9E/uqX8X6Fyv4i2PFMvZ+sx9uv7P4HWxbW4KaGuZn5y1iAQMzrJjVP2Jf9U7+Mlf3fhHx23829ndrL1fpcB37KRtmx+Th8fF9ebgSfM4IsSKGcNk9mR1vaEfor1rfYAU2Wy+uDSbjbMUsZzg9bTBOjvkKgplhRM5PwSMrjggZDNh8MRtBV6Dq23wqC28nBPHq1z6PljefwJFzbGfLL/1dh9qJjwovY+2PqeP/gp/dOQOTfnocLaFs68Qhv0x14bE7+AglvyyMsXVrrPp8isSWQ1j96Ab2QP7MRqy+M4uNBI7dgWc2Pw/4ZIUQy9jrscsAwM3Bwdg9JgNTM6v4S2SLcmZYo4kzPMYz9pe5Mqj91xWuJz+fhulvkl+WZwXhTuTzVGcEBu3XNpC9KLWeh3C9CljXn3/kPYITbR8o34X6hNtw/4MfASjErMEHeDYDAMDecn69U5Qzg20fz2DQl3kIGQw6j1MPVX1X1ffB1PEf4/XfjxDmij2cmAmA+Z2tmIVfJSVagc6Or/2y2frqSlceH5rp93yRv3x2X/VOqYycFeJJsgy5HmufGjiGpot0nVXfr5eO9x/jxvbzaZhq8suqkDdoP34y94fuRZ1GvMZ0zrjqCH0ggrwdFzB6zr8hujwNg94Ox33z6WoRKHjAynaQAKA/BqefQ35ZmAcw27l4OiK6fBMWjjhl9UgzWR4di8qmSzzlx6E5/XFs9TxnP/BcO+xfTD1ZPGU0Vw2fo4Nu3aHiCuQN2i/cjZV1TgYDdzAt7efF0Xmj+hmBgsP484S78eupV7B/yXg+n8bgGQzsbWIZDD5B/VD6zrM/6nqEk/sJn7y6y3/5AAAQXX6f0GN6dSKJLZ9a27kSz0+x73zm4fHxbTzlh5gipHbbh8JQ2A/nq4+9DMUQ3PpYU4f1cNA6Glnn0zC9RLNLsWZKH7QJwx6xEXZmDO2PGKFfKUXoM5Zhx2eTcVf73phu0zsZDFhiLZbB4DGUJiXwJNGRyX14D8RuNNlDT/sGR40n4r8z9V21voHHSTZMPkP2mG6/QMEWdud7zy7UV49DS719sy2CkoZEjF7awIe5dgJud12d+qiJtYy3tstYlkFrO5yE1rHhrm9XuZ78lL9jJiYm8DGxCVMYH9tya5lpwrAaja9OWOari8kvDyUVC3BLUTrmbR3po4vVr7u372r7FWIT//2QXQ/ml1VjYePPMfWpV+Pw89HFtX0+Ou1H69x+qoapesDAi0max4+fn/Ojv5PguCP8/OKhd/hJCaetjH7sujA+PzXar2vE59cNDVOj0XQ33gsdC5N3tfK0G0pH6SkdBaWj9JSOgtJRekpHQekoPaWjoHSUntJRUDpKT+koKB2lp3QUlI7SUzoKSkfpKR0FpaP0lI6C0lF6t073mBpNL0TZY2o0mp7Dp2GSHSmB1tFoHY3W0cg6n4ap0Wh6Cp+GGdttXa1ToXU0Wkcj63wapkaj6SmUDdOdg4TdzmXxgfZjWwe2v4jvtDo/csu3gVl5fouY8HPHKB7e+JzntrFDx37u+fYyalr0Y3Gc87vND65y2o/20H50OdM3UNowePdqWH/u+MDI+Sn4/i//ySkjdcesvD2P9hOjS6pwJHUOdlhvlLZ1DrH5ifPtZdS028+Z1z1+3b192s87315GTV/zfvH/jskej7t9+7AYH43z4n7LVn5ZFXut+OKNrpw74I/gRbNLsW9BK/YMSyfy8RSivCaLR6I4j+2xZ2sHHj2P9KnJbOV712LSO/e6cg7BelEry9kj5QMS5ms0Vxtljyl1z1IXbEddsLcVzxICpWWdg+1F+9kUIivlAk689QJgBWLfvn0Yj8dsnnuSR/xfTk3D7duHYWrmTOQdSLbyBOWhpGImhm4e7ipzyvLvj9DwOie+M5SDF9d+GxkZYZbvZ6/9Ruc5uH9ripXfaKAntEo9NHGIrb4M7edF+/kNZcVuVuqClyE7g6X8eCnxH3ieF6/Owfai/JwMBjMwdPMXMG9rqtVI23nYl5jBADwSfwIMGKjd9iH+OjQVua3jkNz/IyE+cxl2NQ7E4PTz1ueLeP+VxXxZdsZDPGTMHhvI2xfBkXMDMHppgxQCJW57PPV1o/28aL8u5fyRk2fB54zgh32NmXfgCobet18I1m3kOXrcwcASk4ZggHueks7l+GF5bcLY/OVPyRjFeOrrh/brGteTn0/D7NhETJ4Fq6WrMxj4+9Uteg/HjZEIlz1s9XajEC77tlsmwPycbTiGposjMWV1A2Bdv34r5QI+OzhIKKOubt+bb3PP4hTlzOCJq8R6qM6ADP/6Omg/mhvbT32kksgpE9mNGpY8q+ssw31vfoLEO8LIbW1HUU4ljocWSz/N2D0zG/6yJFUsgddGlvVg7QfoN5cNfw89PRaXNn8B87aOcq/IQ92i93AkdY61LpYJwF3XyOQmVOasdxfVaK4KXbgr2zO47+RqNNcj3Xpkd2YMHQvar2tov67Rk37KHrN35/zRfkqd9qN115ifssd0DORpZiQsExdJuHSKaY9O+1loP2rao7tO/ZQNM3Zo8/jRfl1D+3WN3uGnbJgm72rlaTeUjtJTOgpKR+kpHQWlo/SUjoLSUXpKR0HpKD2lo6B0lJ7SUVA6Sk/pKCgdpad0FJSO0lM6CkpH6SkdBaWj9G6d8hqzt96V1WhuBJQ9pkaj6Tl8GibZkRJoHY3W0WgdjazzaZi9m1DxO553iWg01ws+DdPvDpKdyWADVjc6r4bzh/LzvhX5XSFQOh7yy6pcD5tT66XQOhqto7m6Op+GqSZU/DCyPml0vYErXhr5G4mDmeGYg67rFs0W3kGp0VxfKI9qdw4S+3ZuNPtlrJnShO1Z79tKp4w0Tmbl+S1ihZ+jtadMpyddMx+wno+tqWFhV6bQyx7Yvha5re0wYSK6fBN7sH5EmxDHuQGrG+1X18W3fd2Vw4Waby+jprXfje3XyZ9LxHQim1DOXwXX8TsqaeRUIJDSgRRy/xM1tZi7+yapN1U9zJ5fVuXRajTXGsoek4INYd/s5oNeNZRdhvve7Ivw8Ro81vZGN69To+ndKBum1D3DtF4v3heXR33DGiY6b1q2b7bIXbWD7SX70biXXTn9MVpcF8ZM0y51/SrEZSpdvNun0mk/WgftJy2zofyUDdOw/uxpd+rKYGYVjhtnUDk2g/dmhiKDge0l+9HYy6LZpdh97yVUZz2A9Yn38utNR5PA72S5/VimAYa4zK2ziWf73NMi2o/WQftJy2woP2XDjAfVGcGfFISP1wg/lxwGUIgtPxiHS5unYElKwMlmsGY+vxF06Omx6DeAJfI6vPE57rZqfQNaQk8JN3+cE0R826dG+3UN7afG5+aP0yP5Y2odidbRaB2NrOvWHlOj0XQPPg0zllYOrVOidTRaRyPrfBpm5+nMGDoWtF/X0H5doyf9lA1TNJENTeuf9Ul4OEDGpVNMe3Taz0L7UdMe3XXqp2yY6tu8htTtqh+XdekU0x6d9rPQftS0R3ed+ikbZuzQ5vGj/bqG9usavcNP2TDdXasKSkfpKR0FpaP0lI6C0lF6SkdB6Sg9paOgdJSe0lFQOkpP6SgoHaWndBSUjtJTOgpKR+kpHQWlo/SUjoLSUXq3zud3TOohdo1G8/dA2WNqeg+h4gqdreEGw6dhUh2pnbnAyTggPsPqhzezgApqvRTXli5UXKHYV/H5qdE6mmtL59MwVVwU3rIc7sa3fWlU6GwNNx6dvMbMQ0nFAtxSlO55iWw0uxT7FrRiz7B0TE9qt+Isc/Dki1txaM5NktZetiQlgOjyTXx5YsshvGAFPoeKKxC58gGOhyZirGlKyyii2aXY/YP+2D2G+cpB3WnSesT1s/WUWK/yE+v3PEoqFmDg0fNIn5rMiu1da+n8YOtl+8Ap465P39N/QNr8lVYZOWBcDhZn86n6h4orEJncB3DtO9U+Bd9PY3Fps70OTW+EPsp96Y/RSxvIoezl1DTcvn0YgplhrDuTinDZwwgUPGB9TkTzlmSrp13AGmV2KepmNmL1nSycbOGxO/DM5uedVU0bjJNj2FulI+en4JEVR5xlLgLlufhdY6rw4tosBNsP4JUVE3gImR2QPemtfvjqwZdiuGbrj9DwOifMLZRDvJBXJr8sD9P/9F/CiEJoyNNuRcLK2xDMrMKR1LD1Hs48lFTMxNDNw/l6mueetJYtQ3bGTEz66XG0iCsBEF2+CevGHeX7zu5RO9ynmmsCZcN05yBxbudexIkfjeMH3lRhKJt44SBeWTEBAFDZdImXBQBD6Jdtv+n3fJGHbrGXw7KzP2dvOU9bUpSTibt/PNG55Uxs36r6Jtwy7TeA5d1SMQuRJAOYNARDTu3H91KYf6DgMBoGDkOw+QrarFXJT2i0W84X8f4rT1rrWYbsjIe4B4S62Z+AQmSlnEZlznrP9rUBwN4I7t+SAuAYmi6y37RMjENy/4+wf8l4y28ZdjUOxOD0c7xmjr/j92wwGWcrZiHSz+DzAeBLyn3Kyvcp/w4yMsKY9aOJkh+1X+1l1LTtR5XTfrRHZ/yUDZO9OowdPIb15+AUk+d7f0C1l5vCIslv71qnd8kMC8M7N2x77HLU9gUKtmDX8CBWN+Zi8fAGvLJigrR93h94DdgDdvtVaYwEQZkg1UvtJ3u7t49ej1yK2j5nnuzHFcJ6ALD1kPuU6fz2n3u+vYya1n5X10/ZMK8GYmYBAKjd9iFaQtkdDg9jJ4KShmGYWP4VpH78rnM9dugczqVO4esJFd+F8Rc+Qf1Q1lz63nybNf9h59owLo6h6eJIhMsedi/wgZVxhuCl+FbKBXx2cIhbKFHZdAnDZ+/wDMc72qdixkFN70XZMKXuWeqC1deYYhcuYsLEqvVHPZkFAuW5WLw/mchg4I+9bdT21W77EJ+bNhotbxbxZe71RCY34Z30x1CalIC6Re/hSOoc1FdX4jc3HUVta4KVT4hGXJe8X2ClX9nJsi0I+8erczDxMvLWfoB+c1nKzUNPj8WlzV/AvK0jldkaTJioWzQbkfNT+JDV/p2zT/l3Yt6n1P5z419fht/34Ub7eaH8OnlXtvcTXb4JDZN3+wyJNZrej7LHjAfVGSFeOuNnJ3w+MrMRP5n7Q/dioJN+saD9uob2U+PTY8o3PdSYWkeidTRaRyPrurXH1Gg03YNPw4yllUPrlGgdjdbRyDqfhtl5OjOGjgXt1zW0X9foST9lwxRNZEPT+md9ijOniYP2o9F+1LRHd536KRtmR08s8E/KntqlU0x7dNrPQvtR0x7ddeqnbJixQ5vHj/brGtqva/QOP2XDdHetKigdpad0FJSO0lM6CkpH6SkdBaWj9JSOgtJRekpHQekoPaWjoHSUntJRUDpKT+koKB2lp3QUlI7SUzoKSkfp3br/B9U5AMDsYsOuAAAAAElFTkSuQmCC;" vertex="1" parent="1">
                    <mxGeometry x="-970" width="230" height="118" as="geometry"/>
                </mxCell>
                <mxCell id="21" value="" style="edgeStyle=none;html=1;" edge="1" parent="1" source="7" target="20">
                    <mxGeometry relative="1" as="geometry"/>
                </mxCell>
                <mxCell id="7" value="" style="shape=image;verticalLabelPosition=bottom;labelBackgroundColor=default;verticalAlign=top;aspect=fixed;imageAspect=0;image=data:image/png,iVBORw0KGgoAAAANSUhEUgAAAL4AAACACAYAAAC1BNNAAAAAAXNSR0IArs4c6QAAAARnQU1BAACxjwv8YQUAAAAJcEhZcwAADsMAAA7DAcdvqGQAAB6hSURBVHhe7Z17dFXFvce/OyE8rTwjBFIfQRQIJOF470KJIVgqxXvVYmiRXnuLhLpA5S5KbV1VmlVWaailSxEvYKJtIlZXhStBkVsQOGogyW0WGsJTNJDrAwiKAtJrBE6Sff+YPXvP7PnNeSXGPObDYq2dvb/z3bPnzJmZvc/89ljWFdfbMBi6GQn+HQZDd8BUfEO3xFR8Q7fEVHxDt8Sibm4TEiwkWAmwwQ5ZsGDbNiyL/QUANmxYxDacNDaRzvgZP//2N+WnVPyEhAQkMKXB0GVRhjqm0hu6A0rFt51/fFuHeEyn417GT8X4qbSnnzLU6ZGYKP5pMHRJlBY/HnTfuHgxfq3D+EWGqPiUST6Kg7tRW1nu/V89yz3q3VFTUH6FKKvahdrKchzYsRZzL7RIutj9KOLzCxVsQm3lNrxy+0kAQKAoiNrKl7Cq4ZKricVPT3z50xOfXyivFNXuZyASn5+ejuVHVHwdX+GD349CVnYu+79wvV8QA0uQN2ky0h+vR6P/UAfgYqOF/uPOAcjHwiFn8OFX4QrW0BmJcoyfj+LgbAxdOQ4ztgyXjizeWIHvtjRgxPArgL1HUB8Yg1FfHsQTOQsw4L+DuOGTLzAuM5mJ965B1sINbtpQXilq7v8KRTkLUNqbfwcLUVaVgzSbZevsa8m45bGxWLyxAnMannLThwo24cjkBjyRswClvX+K4uBcTOzNWi2ehp9jzy/S0NcGgAaUp83EopQk51wqgaIgSpqO4sTQjzDtr9fizan1+N/RORi6chz+tefrgpd4PYV4decgfH5uPAIpzU4jkYEZW4b7zu8vA/laxeOhgk04NH0QACCx8RCeyFmAZ/5tHWru74tTVgqu6nMSB/cNwbjMJPd6qTSlvROweOMO4nO4TCozFyp/Naulz60rEEOL3wdXP1JHDnWuHPApfrn1DDDhKiQsfwt1/QYj62wzgD7IHPUpVt2Qg6zsCtQH5rlDCJp8FAcnY+DmIU7PUoGzd36MV24/iRUv1uHi9VPcLvnhrGR8FpzifLD5uG7HYCUNUIjXftEXe665CVnZuUjf1gvfOfgs0a3LnD2eg50JWVj/3W+hcev9OHKOtfhJZXMxaVIuMrMnIyt7HarH/NS9nua+6QicegpZ2bnIP5CE636yWkrD8ianWbwxF2k1q5GZPRnp284gsfEQVv30JdYgTG5wyi0Xc45dj19u/jU7T79huHzn06i+MAKBIW8g/0ATBqYuldJkZk+W0oifQ/rj9WgM5GFVQzHmT2V/X2w85J6rPSp4PGPycMTjp1R80UQ2/Aof/H6kO9TJfNAb6nwWvAV/s4CeJ3Zhxha5x+CVE1iC3Q39nCEEnLGXVwFt2wYwEsl9TmL/omudvV6apLLdqE24Ft//AavQU/ofwLql1wMoRE5KCwbecdr5Ut7stKAtCBWMRZo9DLn1/4PaynKnNbSlcZ/uelfU9kDmqE/w6svDnD0t7r3JvspdqK2c47SW/BoaUD7zRdiwUX3ivODn3c94afj1UtiYOO1K9OqbjkXvsPuqkvE9nGMtSPzyEJ5f2hvAV3j/+QfcVP8kpNlXuUtIw87DP4ceZSdxSvjF08NXLrbtDkkzpWFtdOWn6MJc7zfhp1R88UZBvWnw5LH/zpWP0QPEzFox+pUg/60vcfX0nyNUMBaX78zFc735l6wB5WmTvPuP7OmYsWUEAKDnidedFpodG3/rgyh10+mvN2nZXY42AUAf9B93Hos35mL08W1ei38hQSlCvx9P47b4F5jesoDy0xeBCQ9iX+UuHJreB8dWzfDytneNcD25GDtruXIu8e9EeGn49bI0csGKf8mfryUd1X8ePp1mW9F1MD9/ScaA9swkobwcjO9zAvsXjfIfcrAAHMPpr4YjY9VRwBmf/zDlS3xxcAAAIGnZYXw4+hb8JbNJ8FmC3Q0jkLvxHsELACwkLTuMI6m5ePX2Bt8xPbnJvfy7JC59ehQWLIQK7lDHxxoufepcj5RmHuaPahYeGEx375+qt3/kDEdCgkt4xDRqgxWe5n6DnKGpiOX1cKvv9h2LB7oCxk/r/JSKr+sawo3xw8GHIIceSsGny2/GopQkhPJKUVVVjkMPpbnd8+ENj7JWfc1R9LqTp0nDxc3fFm6ol+CtL8bjxpa9WJSS5OZv5cxy1AcWunk7sGMt7r3QDGAJ7tjaGDbf+utVWfFiHRoDD6K2shx140+5rbeI30+XxsafUVyXKOfNeYyaVDYXC/cnI7e+yj325q8OS0NDPz3K7tWkkZEHDzaSyubivxpSvXRO+VBlEWkfdZxD6Sg9paOgdJSe0gFRP9WJj8UbK3DnnkHuE5bWo3+61PkoRFnVtfj4mjz3KZP/yZXh60Ntsjok/Ae0ObhuR2oXqPTwhmhCC31f899MpW8niBY/Icrxu210JEZH07F0naTFNxjaFqLiq98OGqOjMTqajqUjKr7B0PVRKj77Rcxm284//35+jNpmGjqd8aM9jB+d7uv0I25u2+5xpsHQUVFafIOhO6BUfKl7kboQGX1X48G9jJ+K8VNpT78Yhjp87nijO9e8NQSKgsIMQm/+envB5t0Xx/SDkTjfnRF5fn84xDIQYwgMXz9Ki0/B5taMxMfX7EI9MS1O943TESrYhHUj3/PmgAsTtBCHXyTa0k+e7Tk77koPADULpiIrOxfrTukam/hoy+tFF/UjKr5qwoIpZmNRiljphW5D86yUofrRcF0+nglWEBOt5LhfL1bXiYtdXeyL4+WzDWU/eZLaVDcNmyQXDv31BoqCeHvDBlRVlePwhrVOPl/CqoYQAkVBbF9TjKoqdn7vPOHLhcX6ytfKGiDmy2BlwsrIduKFy7GvcpdUPv6yoyavqeivVyb8dXh0LD+i4n/9JC17DVUJ41mghW+2pD6aqgTzp+Ygy2lt5xy7Hov+NNtLOKE/PnYirUrOZ+AnS99z/Sa++5/e3HZxaDPhKiQsT0NWdgWOpOZGiA5jXBrxPe9L5FRuAOgxogUVjx3DudR0XLdjLaovDMJV950GAFyR1R97rpmErOx12D34togVT+4RvWgqPpMyY1Ud0+XlIKvlAJ5fOhqhvBJt1Ja+TLsvRMUP9+0RaY2OV+J1qB7zH8503IYw0VSMxRsrUFvJWmjv/sBhb5k77Fg582ZnvFyInJQTKJ/5oqzl7C3BjC2pThwAlU8RdrznideFABFhqLO3DIt7WEKElICbtxIU113CwNSlmnJhTBxxOZrfe8sJgrFQvf0j/GNgKuZeaMGK2tMYGniB6aZdiUYnsmritKs1UVvhy1SPPn8ynVNHVPzYiWeMxWBfADFGld0wspZbHP+HCjZhzrDjbqRV/oEmn1c44s0fTfzXGznQJRJJy17D7sFZWNVwLxYOqcPzS0d7B8kILGgi1KJ/kNCa66XoCH5KxRdNZEPZnP0i5sFaY/7+GdpD9WN/5yb3cjZ5NNWPSV1i4xnsHZgAoBC/zqBuKoVz2bYb0aXzY3+JeRIDPXw6bSvp3x/OrxA5KV/ig21PhvWrPnEeiU5gvQ0bD98zCt86exwlvS2n1xiMMWU3IvWTN923U1Rv/0ATtfWoFKEWzeeBiNdLe3QmP6Xi0zGKhSir2u10k71x9SN1OLiTegkRnK6F8vC22Y3bLnfYkn/5fvzx+8sAMprqacy9YLv3BT97pwK1lSPRWOu94MlDOJcFp0fZJfnVrr5bmz+5OHzX4WxeGvE9J9icj/H9PQ/hN+FB51pvxkAnosyyeGNRjjnDmp2hCBvyJS27CyXnM9zA8fzL9+OPd/7OzWv19o9w2YRr0Lh1pXumpLJ8NwKL54/dS1hSmYo3vvK109er4tNpthVdB/OL4Tm+IR7i+b0gEqGCTagbv0cYyhhiRWnxdV2DH0pH6SkdBaWj9JSOgtJRekpHQekoPaWjoHSUXtzHH1cemdyAP975O60uWj/qOIfSUXpKR0HpKD2lo6B0lJ7SwbT4hu6K0uIbDN0BouKr3QWN0dEYHU3H0hEV32Do+hAVX/ucyIfR0RgdTcfSERXfYOj6KBVfF6PY1jGPxo/eNn7t46dUfMuy3O7Bcv759/Nj1DbT0Omi91uOsqpd7i+Prffzto2f8QNV8XXwH0/YNALddIVoyUdxcHubTo1dvLEi4nRfFfY2YHkuvjh3XZz7LpeBfzq1DikN4Rkr4jz92K/XwFEqvtS9uF1IPkqmhJwZfuvYXHphLrzc1XhwL9VPRTxm41HkTZqshOLF70frQgVjkVaz3ZntGHJ0fMp0hRRtZsNG0rK72Fx3zcxQXf6oqczR5I/y00Vtxeuno6v7KRVf6l7cLqQE86fOkuaU+9NQcC/VT4UfCxQFfZOsPG4oegP7KvmKJC/hqYYmt0X1JnqxVvUpYfKY7rwPZ12GD7Y9gCPnhiNjVZ1WB5+H7rftWK63Ke85VO9Yj1d37sK+yvV4Ye1O95pDeaV4e8PTeCZY4Vzv+ojvvbdgub2BOBFNjNpiOZuHZ4Ksd7RgaXtyC5Y7iW5f5S6phxMjvfZVvu6uPxApf9S2SCzl11o/peJHJh/zR/XE2eNL3T26b1w81CyYiszsyUqLxqYifybMK2ctJ2+F151KxNnXktUAEW3+CjGl/1G8+vIwKbgjGvxLKERCF7WlW88KAC6ljnWjpvIPJOPW3b/xucqIUVviGljho7b0a20FioLsleXZuch0AoZYQ5SPkin9yAUtooX+POInHj+i4oc3WbwxHzmfb8Utj41x9+m+cYzwfh6ejvZz5tbXB6O8NwjvFyoYi1FnPkZpb75ySmaEsbfn5/9KyqjXSw111PWsFkpp2LHRAGwpAkuHGLVlRR21pVtrizVubDp1OfYJa3cBJThyri+ufqTOjfWNjvCfh0f7+BEVX8/ijRXu3PD2h4+9N+CTxcekRZjj4eGsZKclZvPk0+xhbqvY4UgfgL7+fTEgR229T0Zt8f/eVGffusbZue4918qZNyMrOxeb//kMaiv507fOBVHx6W9PoCiI/Mv3u2un+nVeBJa/1aT9VKLVsS/AulOXCSsoMvgwgRHOz4nFFcLxxGEGTTg/kWh1RNGTWHg4K1mIwaURo7YAuFFbLA2P2roJqZ94Pvq1tkpQXJcohIPSrJx5cxTlxom2XNpHF9W0ZGWRYkB6mZINGz/fWOnExEbzgqV8ZXHhnidex9hZy9lyOMPEUTR72ZR/cWVxAWMoeZRf9GTDlrrDkLQ4tJeeLTZ9FnfUyIsu83Pte+5NJcg90ougdC+heuDBF5zz7cGNlT/C0JXj8Nvb30VJUzHS37hNulZeNuDLBRHlM2PLcOkYXT7D8eny8dKYXH6xl3g9/s+Il+kK36LUsb9Uy/95tJZ4/JSKn5jIxohQDLnMOWbbzo8DEXTCsbA64+fqQnklqLn/IopyFqCkt9VqPwAIFbyCuvF7MGZWYZv4teX1Srp28lP6Ts9A3mZGwjHxkIRPp9lWdMbPwZI+ltb6hQpeQW3lLjdqq7V+ik6zreg6mJ/S4lNDHYOhq6G0+LbbVcjbfigdpad0FJSO0lM6CkpH6SkdBaWj9JSOgtJRekpHQekoPaWjoHSUntJRUDpKT+koKB2lp3QwLb6hu6K0+AZDd4Co+Gp3QWN0NEZH07F0RMU3GLo+RMXXPifyYXQ0RkfTsXRExTcYuj5KxadjFNXVSO51VxxhOsHBTQmtH9svzu8RPeRoKs8vlFeK6h1r3NVO/H7ieE70i5w/HhF2vI38nG3Nfn6M2jZ+7eOnVHw6RpHPjGQTukrOZ+Bnf/qRl0bqTlh6vo/2AyxrOab0P4D1+5MjBIHIfvxvtkWfhx+jtv1+/Gdvhjddo3V+zrZmPz9GbRu/9vKL+Tk+m7x03Y7BYSdnRSJUsAmHhv4V6Z/8yH3zrzqhC84kqG3ofXieNKkNcKbULtygTKjyJloV4tWdg/D5ufEIpDQrqyvKE77oyV7iJKxAURCPNR/FZRNGo68tTx7z58HLm+88wn7DN4fS4kvdi9SFsMDs2so5yPl8K6YIgSiyzoN7UX4s7O9JIQjkUphoqucwf2oO0h8/iouNB/HkDWw+eObC9YB2jafjAIDmvukInGKRROLKK4GiIO5r/hsysyezCKMLCe5CDny+eVZ2LtK39cKtu3/j5p2tZ3WTsm4WX2uL+U1G1sINsGFLkUx86aM3f3VYKot4ys+P8VMJ56dUfKk7kLqQJcibxJaYeTbxX/DuhiVSGgrupfoVIiflDD58NtldBSVj1VEpLU2C3I3BCrPGE7+0BncNrOoT5519+Zg/qhnvP79QcIObRnyTAe+BXNXeMixK6elbN8tba0u+3nlSJFOtEMkknlXcFvFKz19+KsZPJZyfUvGjYUXtaTQLoXC6b5yOUMFYpNnDkFtfhVonUDyWmFeVSGs8RZ+/UF4pVmc0udFH6dvO+CUxXq8+kokTm19kjF9kiIof2cQfEWS5EflUBJbq93BWsjCUyUX64/X4x8ARUkypLqqnud8gZJ0VAzH4ullsjScP8bz+FsGJG53+MwA2AkX3+O4fzjq9UT5Kpgxx9nl+agvD19q6x3fecJFM4fxE1PKjMX40tB9R8Sn4+J51/3MankKWM76OHbYA2hcHB7h7ksp2ozZhFL7/g1MAgBUv1qExwIcH3peJvzGA9xT8lRfqulmRX3jlnWMXSpredMb4/nPMQr/3PvEnJRDX2nLKyclbzYIXsXvwbW7e6MbB0N7E8VTHYOj8RNnihyeeMVY4jF/rMH6RUSq+aCIb2tJ4if0iRuHTabYVnfFzMH7UtqJrpZ9S8fWPiSzpJlH6wVPCp9NsKzrj52D8qG1F10o/peJHD20YP8avdRi/WFAqvq5r8EPpKD2lo6B0lJ7SUVA6Sk/pKCgdpad0FJSO0lM6CkpH6SkdBaWj9JSOgtJRekpHQekoPaUDzFMdQzdFafENhu4AUfHV7oLG6GiMjqZj6YiKb+j4sF/SO+NbijsKRMUPd4fMI7FewiphxZHwqH5slQ7+E365swaVqvPDIrCejjgdgRHZjxGbLlAUjLD+VbR+bIE77sXLRK3M0frFrmOzUL0pFIs3VgjTPWL3C0/H0hEVX0+g6B7kfN4grQ0VL4lfHnJW4qjAkdTpxAfe9UlsvICmK0YBACZOuxxnT8hLLOlhU8T9szzj4WKjhavuOw2gEN9taZvPtjOgVHxdjGIo789YnXEaO3Le50ovjTSOYundR0waP65jsysThNmYcnwvX36mOLgbhx5Kk1bwqF09CzZY7K63OkchyqrWY1XDJTeW9oW1L3uTxFbPAmAjsyiI7WuK3Z7n8IZHpfz5YzxDeX9GVZWzaog7v34bWMCL7Vvd0Isj1vsNwzD7KPYn8AUbTqPiM14O/hjnNZh7oQW2k2+5bLz8vb3haWLFRv3nkZvcC1+8fxZ9b1uMUMFY9H3nIJr7stmvvFzlcoMT1bYGJS/zY7wMwPLm6GxbXtnS+9zjqy/+8mutn1Lx6RjFfJQ8eB0ubs7AohTeIngtA/ULG99H+3k6Plvzg21PAtpoqt85EVj1uNjIe4pcZC3cQJzbv90HgSE1rl99YCZWNTQh0Y2mmuRGU716ewOZbwBIKpuHSZPYAhLeKiLTMWNLKkJ5z2HPbRfdmID0bb3wnYPPIv+C91pqvx+QgMSzJ/Dv+3o4Cza8id+e5IEycozznGOjsehPs2HBwj7NqodAgrRu1rpTqc40af3nAXyFxq2VOD70Fvwlswn7F33oBtfcUPQGGTkGAM19x/ui2tYCviWS/B2H+DmpnxmdP7G++MuvtX5KxadgQ5ytbdK1cpr78Zb7Zgzc/G0ncEQXTdUaxPWlliBv0t3eIgZ7y5xtMZoqDtIHYMDx/a5v0rLDqOs32Bc3QJO07DD+b8LVaNy6Utovtrb+xSh0eOtmAeWnL/oPa/gDVn82Cje27MWiFF4d7tNGjjGoqLbOhVLxpe4FtrsQmLdyH1svKre+ym0B5K7Gg3vJfgw+xs8/0ISBd+x3hiZwoqluEiKWxGiqFrkb05yXIR7T3wx7boioi4R8tWyPHn6uJbhr0jT3GntecS1CBZuc1WVuYisYOuvqhs+Dl3edzsuffLxmwVQhaH4ArrqPB+azyLHMbBZy6m/4/D7hvuZyqUSXP50ObeCnVHype4GldLts4eNTKE+b5BaEpYnA4l6yn0zNgr+j3hqO3I0/FqKpfuyXOSSgud9gTDirxq3ye4TFG3OdXkI8l3KZLl7uEFHH6XnFtdIxHDqHc6kZeKqhCRYs3FB0I0Z9+TlqB4ZpqdMHoa/zQVDlkth4BrUDe8DCcvwmg/UklM7Dy7tOJ38e+Rg9gK4wwB+kyLFwfiKJQtn4o9pErT8dR86fXoc28NN/0jGg+8ZFxxLcsfVzd+GycNFUuggsMWJrTsMh4smEviWPlZoFf8eR1OnCjd1JJJXNxcL9yW6+Ssafxhvj7gu7WJuIv/ySlr3GVo9/ZzdqK0eisdZ72sOHQN6C1urqj36/eIgnckwsmxcGve9Gtflpi/yJxONHzNVJADTfIBl/q6rD6GiMjqZ9dPRX0mDo4hAVX/120BgdjdHRdCwdUfFjJ54xVjiMX+swfpFRKr5oIhvazn/nL+3zdZ9Os63ojJ+D8aO2FV0r/ZSKr39MZEndhvLgxMWn02wrOuPnYPyobUXXSj+l4kcPbRg/xq91GL9YUCq+rmvwQ+koPaWjoHSUntJRUDpKT+koKB2lp3QUlI7SUzoKSkfpKR0FpaP0lI6C0lF6SkdB6Sg9pQNV8XVdgx9KR+kpHQWlo/SUjoLSUXpKR0HpKD2lo6B0fn2gKIiDQvyB/7hINH7+fdRxDqWj9JSOgtJRekpHQekoPaUDVfFp5Gmy4q+mkZCX9el+RA5cMXwTEBVf7S4Yvtddx/3SWB268/rpPrqaBVMx/tb7o5z6ENmPYXRA1FMW8lEcnI2hK8cJMyVtABZCeaXYN/sC3hk8zpmUxJbOeWDtFs2yPmxZHXHZn8TGQ3giZz5KeyciUBRESdNR1AfGIM22nWMLhA+fnZcTyivFnl/0wZ5rmK9/qSJ5eSF5WZ+SpmLnCzxPuL5fozg4G/3eO49xmcks2d41js5fLiL0UkD+6/GWD7Kd8MMcd+q1uIQR35/YeBBP5MiVP1AUdKcqe+VjIVTwiq9MvXJj5ZSGi5v5OSIhl7OezqkjmhJVxOiDqx+pE4Y6d7tHqAAI/bI+SQjllaJmcoMbUDLn2PX45eYC71QT+uPja9jU5JLzGfjJ0iPeMV/++MS1jFV1AIBQXg6yWg7g+aWj2YdNBIjIMbvU9dLBK+HgSwF5PaKwztWEq5Cw/Frf8kHzUBycjIGbh7jnYUE3J93QwvTH69Hoy1+oYBPWjXzPLbvxtz6A0t4JCOU9R5Tpr6W0sUGVC0Xn1BEVX4d/qON9sLEGQEycdqUUQqgEWrgBImw9qkgt1Ira0+6KKhOnXYnG4BTW0sUdIBImeIXEWwqIZG+J01OKAS8jkdznJPYvYjG3bEp2P/Qfd05IqPJwVjI+49cnEKlMk8rmYtIkdU59d0Wp+LoYRYYu2EEdR/HjlnBI8tu7BllOgENWdi7GzCr0hBIsP+4jKyJ/Sctew+7BPHa1Ds8vHa19jMX38Kov/wLYIihZ0AtH7yd7+/NHn0dOReXP2yf7uQrhPOBBIE5IJA8c8YZU4cvPv58fo7a7ip9S8XUxigxPLu9XuxN+3La8IBHuV739IzQG8qThA/UoisHy4z6yIvNXguK6wW7samlvZ71aIUAEAAJCgAgPmrAsSwiaSBById/riPlTr91bCsifPx6HyvaLqVgavsZvKK8UP3RXivGul18/27JQfvoihkx9C/kXbSl/b7tlGiLyZ6Ep7zlUVZXjrUfelfyocuXHqG3uR6XrTH5KxdfjH+NH94iOWtbHH7hR63tjQDxUb/8Il/liV/3nEQNEog2aiA5xKaBoy6cE+WuOotedLL740ENpuOjEHvN37IhvlWDvHmJPekrOZ7hDGh6o47/WtijTrozyVCcxkVUACxZseG8J8CMe0+nELujr9gsVbHIXiuba1vj5MX6qrjP7KRW/s70tmT+u9D++MxjC0SYVX/eNixfj1zqMX2SI5lH6HoRB7kb0GD8a40fTPn5ExTcYuj5ExQ/37RExOhqjo+lYOqLix45499wWGL/WYfwio1R80UQ2tKXxkv+XSA+fTrOt6Iyfg/GjthVdK/2Uii/eKMg3DZbUbbQ25lHRGT8H40dtK7pW+ikVP3pow/gxfq3D+MWCUvF1XYMfSkfpKR0FpaP0lI6C0lF6SkdB6Sg9paOgdJSe0lFQOkpP6SgoHaWndBSUjtJTOgpKR+kpHdBGP2AZDJ0NpcU3GLoDRMVXuwsao6MxOpqOpSMqvsHQ9SEqfrR3yEZHY3Q0HUtHVHyDoeujVHxdjGJbxzwaP3rb+LWPn3mcaeiWKC2+wdAd+H+9rbFGgUC3gAAAAABJRU5ErkJggg==;" vertex="1" parent="1">
                    <mxGeometry x="-940" y="200" width="190" height="128" as="geometry"/>
                </mxCell>
                <mxCell id="8" value="" style="shape=image;verticalLabelPosition=bottom;labelBackgroundColor=default;verticalAlign=top;aspect=fixed;imageAspect=0;image=data:image/png,iVBORw0KGgoAAAANSUhEUgAAAmEAAABECAYAAADJC+LnAAAAAXNSR0IArs4c6QAAAARnQU1BAACxjwv8YQUAAAAJcEhZcwAADsMAAA7DAcdvqGQAAB1kSURBVHhe7Z17dFXVnce/N+HyCD4Ir5Im9RFEkZgQruOiTUiCi0rtKjCatJYZO6bc1kKFTpoy7aoiMzg02LFjKQqYjPYiLlhVNAGhrZE0ap42yyEEYhAaSVEJAaPE0jEgN3Dnj30e+5zz2/cdCPL7sFjr5O7v/p6999nnnN/Ze997XK6JNwXAMAzDMAzDXFAS7B8wDMMwDMMwgw8HYQzDMAzDMBcBDsIYhmEYhmEuAi7VmrCEBBcSXAkIQCS74EIgEIDLJf4CgAACcBHb0PIEiHzsx372bfZjP/vndg/2Yz/2Y7/Pox8ZhCUkJCBBqBiGYRiGYZhBgJyO5ACMYRiGYRhmcCGDsID2T99WIaepdLoX+zlhPyfsR+vAfpY0HfajdWA/S5oO+9E6sJ8lTedC+JHTkcMSE+0fMQzDMAzDMHGEHAmLBlXkFy3sFxvsFxufFz9PeS3aazZi0Znz9iQLsl+4eYIRbvnChf1ig/1ig/1ig/3UKIIwysCLitoGtDXVmf/X32Okmt8EoKD8AH/hJvzvthWa927smHfUSIvGz4mpi4+faIP2mo3wnhF5POW1lnYQhOsX7/KxH82l4FeGquZ66fyqxo55xwidILRfcEorG/H6zw8Yf8fqJ4hf+QTsR3Mh/KzXexGUn9PSyrC9eRvW9fhteXQoP2efi618FJeTXxmqml8wjoELLqJ9dcLxg7J8/pXbbff8WPys1zlrvwqOXL/Y2w+K8lEMrp8iCFNxGkcenYLs3ALxf9kLdkGUTMaEUX147+mJ9oQhyGn0YzL+8ZvH7QkMEyM9qEvPQXZuAbztbkwu2RHTaBQAtC6Zg8w7HsCmkeGf6tHkYT5flFZ6MfOdJ41rPfeHyxf36ru1a9KAPSlK9OvcZjQnZKLkmX+yCy4rFGdVsChORuhKKxvxhxdf1CLlClQ11xvTGaWVNdiysdIxelZa2YiO5ekYljoXbU2zkB6YhIKu14inf4rIyheacHWC9157H2n3bbB/jNLKRq2e9Whrel57ShFPLH94sQFtTdXYsvElqR1cjidO+kkm3PKxjubS07Xsfh9/Hz0W2X3npD6iPUFKI6+Wp1Rj9MxleeKUpxZ1ffGkc0ie36vlk/uqM4/dT+6nYjT7Kal8ulcwnPWlYR3NxdOJa5x+vW5GW1MdDmx7SEu39lO9D6n73AD8hZvQIvU168yC3uec/Z4m/HqEx1DXqfGU1xrnanvNU0b7WkfL5NE0Lypqa8z7U9D2FuXzlNdKx15cC5qb5fM/VD18qOg8i+ETbwCM/Pq1zNy/uv+I/cjXQNHnwh25ClU+ncHVKYIwFaNw3YOdjkYCgGvGfIifvnISmHEtEta8gc7R47QbyChMn/Ih1t2ah+zcRnR5vocd845hbdEsZFSfBPZuQMbjXfisvwPrbp2Lu37/RQCIaE41HOLpN7y9HnvGTXfcbNYWzTKeHDOqR+COhv/QUlKQeuJJbD5+BaZPEe2kd7zSSi9urBmH6bn5yM5tRN+CD8IMRIMTz/qC/WImUr+Zc6/BmKP7UZLito1KbEbLzT/SLqRe+GaPlkan7zTOH2AFCnPykfF4F/olX/2pdvPxRPTtmqDlW4h/TRmmzCMu0PlI3jle01v76dm0abixZpzmm4aCynsjrm8o2C82IvV7bGsn+j1LHdPi4hrXiC7XcWPUdto9a7RUHxbPyTOugcWHb0LJMwuVfa4kxW34UuXzlH8Z6a3rDb/sZdvsEiWUXywMTb8UIxDWgxRoQcnmyYe0e644Dj/d+bA9M8EoeMa3Iju3ANNzG9HlKXLc42Ral/wZB9PM++DMudcgqbXKclx16Pp6sXjKcJxo/Q4AwF21CDk52rHO3YyWm7+PHfOOkf1neu63UZLihr9wE1rze6KoqxW6fNETiR8ZhMkGVrPTOPLoZOOkmL7UnI78qPZ2/NEFDO+ux12/t3678qPa2dpQ9go09IzG1bd8AgCYmXoV+o6uAgAk9nXDN0IVSQa0//pf9LZDF1A1RLR++tZ/wfuGGwWV9xppQMDy9NFx51jtU4jh16KtgNYWf9SqGQiUIS/lPJLn92JfU732hBkAcD7K8sW7vuwnuFB+5kV18+RD+NWC1QC8mDqmH0eqf6P5iafH5LRVAHw4+EkSrnuw0zKCai2TPJ1p3a8ae/+bjAmjjmF/yRTNWz6PzyPx0w48t2oqAoEA6no/szjpDnR97WWNtf3YL15+4oaYj4zHuzHxoU6012zEd0+r1u6YfuZsQB18mcPsQgvq8gFAAC3dp4AZSy2jLYNVX/2vS8lPXr4wPTcfm4+L++7M1Ktw7tAbxvRxy+4j+HtyWhhLG07jL88t07YfQmGOCHTs+zXLtAINPanIWtepBVQfo65oi6lT1le/zhVj5jtPYvYvb9Y+l0fbizFz5HnL9ctF2M2cew1GJGWgZI+YTbL3uWDtpy6fqr6D40cGYfKiMucCMzNL5L/p6sXUMQEAL6CquR6+zGFInt9rTEu+/SfVN7JcliE8dflsOmX5YvcbtvoA3pt6O76mtae/8FmszxowRiUyqk+KPGYWB8JPnEhiJEwfzUiLuXxWYq+vFfajth26iP3Mi6pYg2N9mKH89NHXnbedRJs2TWgtk3yKW/erJsFWPhOrN8K8Hqjqa/ez6dhP4+L5uau+h5wcsXan+JFDUpqM8POv3I7iSUeldY3B1xCpywexb20EZEr7bWjTpj3t5Yt3fS8lv/Ahb/MRoC7fY1s7caVnK/yFebj+YCVKUoabOmVRxXUuo/okMMOLl+f1AABKKwsw9Wi1ORJ2JsFS9oDKb+8GY2Ao2zIyG7z91OVT13cw/GI8Osq9kvgL85A5qhv7Sx5GYU4+Nh8/iyOPThEn694NyLxjqRG9WysbLXTF44ELK/DIuxMxa7wcNPbhvacnaNNE46XPVYgniYLKe+NUvnjXl/1iIx5+2mjXnT/W/MrwcJbbGEHWWVs0C972AW2ELDxkbfDyHUbv6S9qT7xi7ca3Uj7F394eY9PFo74y7Bcb8fKbjAmj7E/5Y3Dt/b22z4DE/pNoS040+qkda/8UZTo3eixm9J2Hv3AT1mc5R8/cq+9GxuNdYYzmxKu+OkPdz0T2a+k+hcSbZhtt9bN7p+DKvqPGvVU/BqWVBdrMi5Nwy+euasCecdPxwlevRP8ra22pwevrXr0LLWdG48b71hufnf3wXQCAf+V8bSTMil523a9l9/vo9xQGnTZVE7x8kROdHxmE2YfLTNRrwoKhL6brWJ6CD9fM0oY49VExQd/RVeR+rfu3ptm37VA6Sk/pKOSUAAJo2X0Kyaki8ndXLcKLPWnaMOs9GH3ohCOPnQACWFtUhy7PMqNN22s2OC404ZfPqaP0lI6C0lF6SkdB6Sg9paOgdJSe0lFQOkpP6SgoHaW3fuZMt/aRWUhvXa8N4VsXy/sye1FXtBUBBIxFrh3L043henlax1zzoy9yPavME8Bv4d3wLkYs0M/jdHy280vS+jNBNPWl0nUoHaWndBSUjtJTOgpKR+kpHQWlo/SUjoLSUXqnzv5zRHKfA4AVeGT/MONeoPcr9+pd4ttuexrQ1jQZ/W1nDV8o+px83exYPgpdbebNVJ7a7Fiejv7a2fCNVN/cnPUIt740lI7SUzoKSkfpKV0oZJ179d3wncoypui8V+3Drxb8AgDw2NZDxjEo7ulAl2L4Ri6fvszGlzkMmCHy6ssfAvgtKjrHYfqUD/HyS5NID3nbWhsfvBvexSdpWVjX47f0j87M49pImIlcdn1h/rCq72LZ/gmWtXHqpRlW6PI59ZSOgtJRertu0H8xv7SyEQveGovbfznNnsQwDMMwzCUM3+NjgxwJYxiGYRiGUaGPVBb3PMEBWAwoRsKsC3PVBFhHwjoa1tGwjoZ1NKyjYR0N62iGho5HwhiGYRiGYS4CiiAsnGgOrFPCOhrW0bCOhnU0rKNhHQ3raIaGThGEMQzDMAzDMIMJGYSJX34NiG3tn/1zPY3aFho6H/vRHuxH52M/2oP96HzsR3uwH52P/WgP9qPzDYafYmF+/H6igmEYhmEYhnFCjoQxDMMwDMMwgwsZhFmG3CzDalbUw28muhf7OWE/J5H6ecprxcuFz9AvF47Uj9qWGYp+/pXbjV+QjoefzKXjp/3Ke5C3eETmF+/yqfzEWw9e//mBOPmZsJ8T9qN1YD9Lms6F8ItwOrIMVc15SA/048ijWZbXlvhXbkfHnWMBAMO7X5VeoulFRe0i7T1Qpy351HnED8EVTzonXs65bJvx+cVF1CXv41e0smrt0br+gpbRU15rvC2+b9eEsH4oz2hPjcT+Dvw6bwn+5583461/S0eS1At0T3k/gh7UpRdpr51SY88XbhmjwVNei82TD+HXeUuMd6NdusjninmM9j37OnwDFco+Js6jz8I6NjKWPhHiPLMfU71sF7bNy1DVfAM+uL6QqKfWdu88GbQesSK3A9UGqjb1F26SzjP5PBLXkOSd4wftHFGjX8/FyU/VJ15Ec81i4DhG8j3Uek7K91Z1HhXyvVhH7g/6vuz3aSZ2wg7CxEVkFN66/l186a+3IWFNphlMGWniwlJa2YjinieQvWybZVvWPbB0iyLPFaioXYQba8Zh520njbyxEkAgopdq0nhRUbsQt358GOsX/ABPl+3E7qwBpJ54MeYyRlO+YK+LoP3KUNX8D5Zjp+Mpr8WWsbXECSZubjfWjCP3Y0ecrL0hAwK6fNFz6fvZA3wTT3mtIwgL7Rccf+EmtP7wNMq1i2woP6oMwQjlFynCb02QICwyoimfPdgtrWzE/ef+iGn3rEEAAQwUPmtpU5lg5ypFNOULBu0nB7WLIwpiab/QqNohWj8Vnx+/YA8eJv6V23Ewv0cLmh4NK08w/Cu3ozPzLUy7Z41xb/YOW6y4R4Qm/PqGx+fJT/HI44jL4K5ahJychShJkY2Fbubca5DUWmV5Mbd4i3sZ8lK6UVe0RcgzxiApkIKsdZ2KPAVYdOYZLJ6T5zhJrTjLR2PqgjdIuH6TMWFUHw5+NAF3ffMEfpY9gD17EzF84g2A7YWz+vQQtBvY7g0VaG4WaeaLlAMorWzE6z8/oJWvDFXNLxj5xDST/mLvjY4XezsJt76hfHTCbRdd58XiKcPRtyuLPPnl9tnXZK3ngW1PSS8NNtvO8TJhY7rJfHl1e81GeM+YZZXbzf5C1+CE236RtktoP39hHjJHdaMm7xF7osYco74Htj2k+cltI7eZ2G/Q/pMxBlf2HTWChVDlUyFe7qvvW/Rn83hYj515HJxp+nH1lNdKx9iLitrd2DHvGH5S2SReJB2YZLysVz+PLMdbmo70lNdaXloun18uuKznq2Uak67vz7InWPr22qI6HEybbvjZ29TEi6lj+vG3t8dYPhVtJ7eN3F/WWF7OLvdhutyirbZsfIlIC+f4+lDReda4loHcj9mv9jWZZWtrqsaOecfgL9yElpqNWKQtDbAeSwqzH+h+cj8V+Sss53nwa2D451t4XDp+M1OvQiLZ9xCFnxe+2aPxl+eWAQDWFs2yBeaR+sW/vp8nP+qIRUzBhBHoO7pKu8h9F9cfPIB+AP+3MAWpn36MtuREeMprcTC/B609YpRNlWeok9h/Ei/vPoWkr+/CV8+34cGDf0O/1uBri2YhO7cA2bn5yKgegTsa/sPINzH7arx1fQ6ycxtxMK0AO+Ydk1yd+As3oTW/B+tuzUN2bj6KD9+En+582C4bUuiBxP6SKfAXbjKCTv0GsrYoV2ufAkf7nE29Hl9YOxnZuQXwtk9AQeW9AIDSSq94OtfymReDFSjMyUPG412OfuNefbepz21E34J2KUAZomSMwZij+8ngFQAw41okrEm39R8fFs/JQ3ZuI7pc1pPe2n8KjP6jH5eOO8fibOrXtJuoHMAFYcZS48ar3xBbl8wxjpe/0IeFV+03pjBKK724sWacdBw+MPq9+rjSiHOrEV2u46hLz0F2boHxRO5efZfWbwYseVqX/NkIkgDAv3Iaph7dh5IUNzzltWKUPbcA2bmb0XLzj0IE61QgdRi9p5PxhfJnlW0qAplizBw5Atc92GkJjlqXzEF2bgE2H7fPPHhRUZuP5J3jjfbRH0qDl3sUPONbjfbu8hSFd1wB4wHqROt3AOV+3gFQhl1fT8KRR6eYZd/rc4ysh4/eh0U9iw/fhJJnFprJM67GB9d/Gdm5BfCdysJ9qw7KmS8TUhwPHjp6oOzL7LU9wMl5Vkifh8a/cj7yPn4jhmPKRIIiCAsWxcnIuhe0qa4bcHvtcOlzYNKmN7BlbC0y73gA7RZre55o9huMeOsEVzzfgL9OnYakPSJQ0DGfbOsd8+vYq4/6HUbvaX1/6v3OnHsNRiRloGRPA9qa6m1rs1So/awoDruDcP2cOjFyar3BeMpfM27i9vYZ3l1vnPStS+ZoN2V9JHWrRWvi3C+0AEQPAMXoSbhPMrSfk/jrZqZeZf/Qyl4f7vp9mq3/qHDZ+k+d0X/045JRfRLDu1/Vbn4L1cEfYNZj7wbjZpl5xwPGU3frkq1ouflH6Fieip51d2mflyEv5TyS5/cSx2FNiOMaKar2WIGGnlRkresEtJEsEWSIgMMMKouNdXgClR/NyD3fULapCB43o+XMZ0bgog44xX79hXnIPt+O51ZNtaWHKvdpY/RCPKR8O8RxhXazflN4vfOkFuyF2k8owm0/oZNH3BzXub1VKEkR95O1RbNCzJBEtt/QDAXdChTm5BvBcMO4r0ujiy7jwT+jegQKuiq1oDtYnmC4tFGw8UYwThNNPYJxeevCvRsHpa73MyTP/4q51ihjDJIAXPF8D7pH34J/GafPI4tpx2B5dAJhDwGGR3z9fosfzDEvCOeSU/Gtu3xYnzVgXGgzqk/aMwWFLJ9008uWnvzDgfQbZNxVx3Acybj2/l57EvyFm2Jqn1CY9fXCt/QGJLXqbeccJQqHeLdfKL+W7lM4l5wWYrpFJgxdBP0nVPlC04PuY2bALdx6jFEr8f/OqJ+uoy3fY1s7caVnK4AyzL5aDmxOm0GR9j/4Dd6Hg58k4epbPpE+E8sT3nt6QtTlU6Pyi7TcAnX5xDHKqD4JzPBKI/Sq/RxG7+kkY1TPe9V+rPv+8zbP8PGv3I7iSUdRl/4VZBOjmdGirm90DA0/MWVMMWz1AXS5qGuvOg+Ff+V85Jxvx+ZVN9mTYiK6+qr5PPmRQZhsYDWzGotffgVadr+Pz/oP4+WXJhmR9LlDb2DTyBVo6Ekwomr/yvmYOVJMV5l5vmDLQxUpYNl38PJJacoRkOj8/IWTMIn01HX6BVnUR6TY/aS/NK/ktFUAgNLKAm20IICW3UfQ7yk0fnbAyGPzkAm3vvIN3Okn7StMP9NjBR7ZPwyTS3ZowYQ9v2gf/XirMP0Oo/f0F42pScd+leWDNtUNeMq/bBkJcx6PcPxU9Y2fn3v1AXSOvsU6FWPXKf2sBBBAy+73tf4jX4CtfpaiW3CWj9rWdWJq8SXM/d37mPhQvfY0/hAaelK1Y2f3M4+r0w/GuqTp5fcSIzBjcO39J5TlsxKAu6oBe8ZNx38+dDOuPfi6dn3xYWNnIm68b72hU/nJ24+19WL8nNeNQPknLxUY05tW7H5yir2+kk47vu6qY+genSlNvek6Hyos5bb7wXpuK/uLdb9AAO7Vu9ByZrTmLe/HWj59lO43t4oRGDEi6jJ050aPRXbfgPbQZR+9t5ZHL19i/0nsTU4EUIaHs/S2lNuP3rbXI9z6Xrp+on30a5vsN7ByGqZ8qt+DZT9bHgTMmQJpnR8ABALiuvxR7WzbfTjc8sW7vpeHHxXxWBaVmdtlqGpu0KYVRuK6Bzvx9p/EuhB31SL84PBUbeqjGHkfv2IMua8tqkPfgo+0KahROPJoPkpS3HBXLcIPD09FyR6xZkLkeQHQhqf3NdWLr3rPWIq2plexY14PUSbrthjmk9KUAyA2nWLbrlPjwhXPL8KLPWko6GrGvqZ7MPrQCS3F7if95RJP6v2epaK+PR3aqI0L7qrvYdn+CZqfWJiqL+DXh++LJ53TpnvEwthg9S01FjaPxHUPHjbW9AwUivUsvsxh2noW8ZtFAHBrxWvGVITYj752SN1++5bMge9UljGNqn9d311ltk+b1D4Upp8Pi+fUo8uzzJjmbVv/bUAbWXvzzXp0LE/HiKQM/HhPo7ZewgfvGx8Z02C+gXctI2HO4yGlBWk/VX3j57cChTkNUl3r0F7zFBZJXzhw+ulfTjAXrOuL4t1Vi7T+86bhJ9b0SCYOPx2qfGJNmHUBdQCe8teM0RB3lVfbZyWe6PFjbVGdVp96tDXVG33OJR1XY4H3+nsAuLR1XHeirakOvxt7CC1n5EvUCvxi/zBc9+BhtDXVG+tjbtWmuX2Zw4wpNNGHXVpAMQ4LvpGEI9W/NpzalmwV0zR6v5K+KKI6vu7Vd8N3aroxxfv98+KbkU7s7SenmH+Jc1KcI8nze7Gv+VVtJGoF5v93J0Ys0Kdy67VjJ6Z+zXJbv+AiMNvL2V90rOXT28m74V18kpaFdT1+aT/6Avzn8cRxP9xVDWhLyMSP95hTiHo/Nc/xN9GxfBS62sxyiWuWWde2pmq8PL8b7tW70Gz4TUZ/m/7QQB+D+J1vzm2Hbgj46ddn0dazLD9l8pOqJuMYHMw/ZqzF9Bc+i2bjSx3WPNbyiU90Bv5djILZp8HFMhKxJOZs6tewT7pHxLu+l6Nf2D9RwTAMw1zeyD9dIFD/7A3DMKEhg7DExAQjWgsE+b0LOU3fpvSUjoLSUXpKR0HpKD2lo6B0lJ7SUVA6Sk/pKCgdpad0FJSO0lM6CkpH6SkdBaWj9JSOgtJRekpHQekoPaWjoHSUntJRUDpKT+koKB2lp3QUlI7SUzoKSkfpKR0FpaP0lI6C0lF6SkdB6Sg9paMQaWtsPwTq/PHVyPziXT72s+spHQWlo/SUjoLSUXpKR0HpKD2lo6B0lJ7SUVA6Su/QUUEYj4QxDMMwDMMMLuSaMIZhGIZhGGZwUQRhjsExBayjYR0N62hYR8M6GtbRsI6GdTRDQ6cIwhiGYRiGYZjBRBGE0QvPnLCOhnU0rKNhHQ3raFhHwzoa1tEMDZ0iCGMYhmEYhmEGEzIIE7/8KuYtA9o/++d6GrUtNHQ+9qM92I/Ox360B/vR+diP9mA/Oh/70R7sR+cbDD/+iQqGYRiGYZiLADkSxjAMwzAMwwwuZBBmGXKzDKtZUQ+/mehe7OeE/ZywH60D+1nSdNiP1oH9LGk67EfrwH6WNJ0L4cfTkQzDMAzDMBcBciQsGlSRX7SwX2ywX2ywX2ywX2ywX2ywX2ywX2xE4qcIwsI1MHX2l1RaYT8a9qNhPxr2o2E/GvajYT8a9qMZXD9FEMYwDMMwDMMMJoogLFgUJ8M6GtbRsI6GdTSso2EdDetoWEczNHSKICxyIpkDDQf2iw32iw32iw32iw32iw32iw32i41I/MggTDawmgW0/9pfAdWObDrFtkPHfhrsR207dOynwX7UtkPHfhrsR207dOynwX7UtkMXpV+MP1ERMIbWAgiEWIwWDuwXG+wXG+wXG+wXG+wXG+wXG+wXG9H5xRiEMQzDMAzDMNEQ4XSkFUpH6SkdBaWj9JSOgtJRekpHQekoPaWjoHSUntJRUDpKT+koKB2lp3QUlI7SUzoKSkfpKR0FpaP0lI6C0lF6SkdB6Sg9paOgdJSe0lFQOkpP6SgoHaWndBSUjtJTOgpKR+kpHQWlo/SUjoLSUXpKR0HpKD2lo6B0lJ7SUVA6Sk/pKCgdpad0FJSO0lM6CkpH6SkdBaWj9JSOgtJRekpHQekoPaWjoHSUntJRUDpKb9fxSBjDMAzDMMxFgBwJYxiGYRiGYQYXMgg7Hzhv/0iBYxBNAetoWEfDOhrW0bCOhnU0rKNhHc3g6ugg7HwA55Vft2QYhmEYhmFihVwTxjAMwzAMwwwu5EgYwzAMwzAMM7hwEMYwDMMwDHMR4CCMYRiGYRjmIsBBGMMwDMMwzEWAgzCGYRiGYZiLwP8DuIWZiaeIQvYAAAAASUVORK5CYII=;" vertex="1" parent="1">
                    <mxGeometry x="-1550" y="441.3" width="550" height="61.41" as="geometry"/>
                </mxCell>
                <mxCell id="9" value="" style="shape=image;verticalLabelPosition=bottom;labelBackgroundColor=default;verticalAlign=top;aspect=fixed;imageAspect=0;image=data:image/png,iVBORw0KGgoAAAANSUhEUgAAAl8AAACACAYAAAA1SAzOAAAAAXNSR0IArs4c6QAAAARnQU1BAACxjwv8YQUAAAAJcEhZcwAADsMAAA7DAcdvqGQAAELkSURBVHhe7b19dFXVvff73QmBEKwSIEoktQIiSIRsY++lJiRBebTYKxTDOdZzPceYWCtVzqEcW28VM0ovDfp4hqVpQeFYE3HoPUpNQPCpCI0aQuLJsIQAgniQPFTBjUYJ5dTwsgn7/jHXy1xrfdfOfkl48/dhOFxZ8zu/e8655lprrt+ce69A4NLxEQiCIAiCIAhnhBT3DkEQBEEQBKH/CLDIV0pKACmBFESgkgIIIBKJIBBQfwFABBEEyDaMPBGST/zEz70tfuLn3u/2ED/xEz/xu9D8PIOvlJQUpKhUQRAEQRAEoY/xTDvKwEsQBEEQBKH/8Ay+IsY/c9sPPc1PZ3qJnxfx8yJ+XAfxc6SZiB/XQfwcaSbix3UQP0eaSX/7eaYdB6Sm6n8KgiAIgiAIfYgn8pUIfiO9RBG/5BC/5BC/5BC/5BC/5BC/5BC/5IjVjwy+Ysuo6+yV/Qzx44gfR/w4felXhfqWzXj757uBmP2cebz0Zfkgfr6IH0f8OOLHOft+ZPDFqMDKhia0Nzfa/y37gVsUF+HSWvx59ULDeyPW3nbQLTnHuBcrG5qwc9PTKD9+GgCQv6IB7cvucAsFoc/IX9FgnHOb0d7ciN2rH3VL+oxwaS1atf4tCG7ClWsc9wF9MJ5I/0kkj+CP+54ULq3pp/bVxwQvozoUdgviwr7OeftVNM7n/kMGX36jtmPY//g4BAtL1H/zVrsFPvj5mYxF1uAu/OXZy9wJPvTmZ9LXOgA4hm6Mxff/7pA7QSNWP9FxROdh23LjvNuCPTkzerkwxeCHhSgtKMaNT0x0JxBMv97yxPK5EJ0v574uXFqL9249gcYxBdZ9wNsfYveLDdFxYtWRWzwlVj9TV4P7pxchWLgFHfQXEtg+hqYzrnO5Gw4jc+YO14AuAb+onH1drEfGlwV1W/C//vAHIxq2EvUtm63o0IK6TXjx6Ve1aJkakS+o24JdD43BgFG3oL15KsZERqKkowFrb/sUAGKeM42VvvT7y1sfI+fu5e7dWFC3RRu5m08CVahveQX/6w9NaG/eYLeF9WTijChGv6nGTl/WF+KXNH3ntxBNoRRk5iwCPFEI59On80nSTtP3m/0tYvTDXQ+NwaCMXMzfavRJo5+yPOxzzPM+gojvuZ8Ifdd+CvFLFrdf9P7Do2XR8yyo26L1NXUdZX3Y3e/RD/W9cPzU0gHvuexs33DlGivCrrafiSPKVYX6ljeteznMe2Mc53/a4t3oCGTiW/d1Agn2n3jurbG3X2zE6ucZfOkZnSaDceUje+1G0BrziqGf42dvHAau+xZSlryDvUOGI9jVA2Aw8sZ9hurrjRFy/r1Ye9unWDpnKnI3HAa2LUfuUx040b0Lv8m/GbNfv1z7PJOI42T3L59LF/FrgET91P8H7tyMrcPzXB0wgqVzpiJYWIK8wmLkbhiEm5t+YeTOxqjPfodVhy5C3rjP8LM3DmPgpVchEolgQV0Frt40HHmFxQgWbkHXrE+w9rYDCZavr+srfopzya8KRdlfYf+GX2tRiBsQNPrcTe8/i3uO9wCowmOTvzDSShAsvBPzswcAiKBt7nQEC0vwQkj/VvNzuH96kXEuvo/q61VfDs5bjYiWZ9UhPU8E4co1WDX2Q1RfX4S8gmKU7RuPn617zEgfjLxxn6P6+qnIfeojdOeXojoUjrO+jGTajyF+bNuji0SQVl+OP4RyUNLxrjb9HSH9p0hdC+e9AgBIW3w7goXFxn9b0DVrJ6pDK2ie4LxXfMun9ut9u9jo22n9Ul/Oue4H4LoHrfv0rofGIAMwls0UI3PdCCuKru439iDJj5OjRuOypWMRLCxB2c4slNTdBfiWbyF+tWMArpzxE2N/FYqyD6JxzksunfmXtx7hyokY99VHeO1VNRuWtvh25BUUa+XeierQSqP/fET7nHlvddb1gPUZ/u3nXz5eX+OvBPw8gy99sZhz4Zh72lFVEgC+aLgRfwwAAw9uxuzXnT9V8UXDjahNTzGe2ofgkmuPAACmjLoYXQfUE3xq10E8P9hTFIOAI1TnXz6XzjcKmKzf/0TFO2lWBzRSraex7c2bsWvGMGMvAISsjme2EwAEAktQlH0amTM7sb15sxEBjBiHhJcptvK5Sba+bsSPbXt0fel33YPY3qL6SOa6b+L7r48Ccodi6IEdmJ89EEAAaYt3Y++Q4biu6zSAfeg8djlKOt7SLq7Oz40kUD4nAUwZdTF6PnwHtekpCASA1o0f478zc6z1F180TENteirS6g/hkOETU33Rx+0nfhrJ+S2dMxV5hcV4NvV7RkThA4eOeYdLa9HSstlYt2he5/zwL5/ar/ftkJ3ST/X1cq776csUSpD7VAe6AQBXIWvwp9gxf5whct6Po6Hu6yowsn3udGvJkV/5Wjd+jBPjS1B+/DTClRMxpq0O87PTPDr1l+ZhDBp3zTiBt679EWrT1VgiXFqLd981I3bu/sPul1XWvdWZxx5j+Leff/n86osE/fxGPDHg+2k+VGDC0AiAV1Dfshk1kwYgc2anNf24c9Mz1kXbWclE4RXuC9IW78ZfJtyI7xp9IFxai2WTT1mD09wNh91ZfAg51k8EC2f4RP9ioa/rK37J0Yd+2sX0xicmxuBnrsdYjc8W7EN784aoT7i9+8VCH9YXEL+k6V8/c/ZixPR3elnsXIGaB69CRpu9blGtEdLLFE/5/Pp2/9Y3ec51v74jrb4cLx+9Gt//u0N4OHhKi3r1wrblCBauQuvxUbi56RfGTr/+0xu93Vv7uv3i9/MMvvzDbE6ipTHCpUWYNPggdsx/DKUFxVh16CT2Pz4OFTtPAduW49qbf2xEyGxv9hmJlK9v/PTtR/HLjy7F1BH6RacLf3k2CxFUoGbaCEPnTwSPoik0CiV1d/VR+bw6pmc6BtMxPdMxmI7pmY7BdEzPdAymY3qmYzAd0zMdw6PbdQRHciZr62C+g3FffYltmfYpHTGmg1YduijqE67tfRo9Q4YZSwbcaV5aDx5F6vhp1jqvh+8ah290HUBNuv/Fx1MPH5iO6ZmOwXRMz3QMpmN6pmMwHdMzHYPpmJ7pGEz37VEXawqF3n/0POYsR/6K7xhRCDvNzOP+/MycRYggggV1JZ485iDM7NusfG4/9z6WbsJ0TM90DKZjeqZjMB3Xm/eoj9B57HJMrt4LGAGDv8/+Cn99f6iRPtRYY1WF9bcOB3z82Ocynmz/G66csR7/43Q7/iV7AOCj9+6rQcU7X+DkqGLHA6O3/9h5vX1uoXVv9YPVw1sWrmMwHdPr+zyDL33U5hzBOdd8bY/xpybM0N+uh7Lx+ZJiI/xoRsEUXQcW0c9lI0imYzAd0zMdQ08JIIDWjUeROWogYIz01VqIFmxvvgNDPvzMk8dNAAEsndOIjvx5xrRjI97Xon+6jm27YTqmZzoG0zE90zGYjumZjsF0TM90DKZjeqZjMB3TMx3DrUurL8e8HVko6WhBe3MjaiZ14q1r78Pz6anGNI+aAm9vbkTFxTvwwqIJgPbFkLKRPca5uQGvGdM3afX3Wv3YXNcZQIDmWXvbp0hbfDtqjk7G/K1N2N68GRUX78C/zfpVXPXwg+mYnukYTMf0TMdgOqZnOgbTMT3TMZiO6ZmOEUDAWvhs9qtVRp8zH5r166B9j1A3U/M+UHPqI0fky3nt3GytJX7ypb3ozn8Q25s3oyy0y8pj9m3zPmT2bVYPVh+mYzAd0zMdg+mYnukYTMf15i3+OVQs/wiDZpn34zE4se6bRjTIWKf1yF60N1+P7vbPAR8/e18V1rQ0aV+Ya3H8DFPa4t3oyL8GGVvvilo+ti9t8e1YdegiY92YX/9ReXmfg3VvNfuJXjYzr3ublYXpGEzH9A5df75eaEHdFsx6bxj5OrIgCIIgCBci4dJatP34GFYUzbUG54IT0ireUBknVl2sxOonOo7oOKLjiI4jOo7oOKLTMSOTux4ajP/UoqL+RPezufB0JPLl/PaAPxHRUUTHER1HdBzRcUTHER1HdJyzryPD0lgMIDpfRMcRHUd0HNFxRMcRHUd0nLOvI4MvQRAEQRAEob/wDL7UL7VG1Lbxz73fTGPbSsPziR/3ED+eT/y4h/jxfOLHPcSP5xM/7iF+PF9f+5E1X333bUdBEARBEATBiSfyJQiCIAiCIPQfnsGXI7TmCJ858Q+z2Zhe4udF/LyIH9dB/BxpJuLHdRA/R5qJ+HEdxM+RZtLffjLtKAiCIAiCcAbxRL4SwW+klyjilxzilxzilxzilxzilxzilxzilxyx+pHBV2wZdR17h5GN+HHEjyN+HPHjiB9H/DjixxE/Tv/5kcGXIAiCIAiC0F+QwVe0UZuO6Dii44iOIzqO6Dii44iOIzrO2dfFvOA+f0UDaiYNMP4KoXHMHMzPTgMALKjbgrKRPQCA1O5d+LXxJvNwaS3e++kYZBif0LU+Czc+MfGM5vEvdxXqW4owJmJk2rYcwXmrz2ieaOVOpK59mSdauROpa9/mcZf7ffy66McJ17Wv83jLXYr52QMTrKs3T968VxBAIEqe+Mo97YlrEEAgrjzR2qcmPYBTpc/75vEvt7euwXmrEUEE1694K6480T4ngiqs8ckTb11V+zyH9356VZx54v+cROp65vL4lzuRuvZ1Hv9yJ1LXvs0TrdyJ1DWRPImU+0zliVZuv7rGQwSRXqYK4yNWP8/gKzU1xcroNDFlRlokgkAgBp2WFlUnflwnflwnflwnflwnflwnflwnflwnflyXgJ9n8OUX+fISoYaJI37JIX7JIX7JIX7JIX7JIX7JIX7JEb9fEoMvQRAEQRAEIV48k6MR2GMxfdsN0zE90zGYjumZjsF0TM90DKZjeqZjMB3TMx2D6Zie6RhMx/RMx2A6pmc6BtMxPdMxmI7pmY7BdEzPdAymY3qmYzAd0zMdg+mYnukYTMf0TMdgOqZnOgbTMT3TMZiO6ZmOwXRMz3QMpmN6pmMwHdMzHYPpmJ7pGEzH9EzHYDqmZzoG0zE90zGYjumZjsF0TM90DKZjeqZjMB3TMx2D6Zhe3yeRL0EQBEEQhDOIJ/IlCIIgCIIg9B9k8OUNlXFExxEdR3Qc0XFExxEdR3Qc0XHOvo4MvgRBEARBEIT+ggy+ev+KpEJ0HNFxRMcRHUd0HNFxRMcRHefs68jgSxAEQRAEQegvPIOvSCRizUtGjH/u/WYa21Yank/8uIf48Xzixz3Ej+cTP+4hfjyf+HEP8eP5+trPM/hSP5GvQmMB4597v5nGtpWG5xM/7iF+PF9vfvkrGrBz09OoOK539sT92Pb57Hf9irfw/qZnUH78dJ/49XX5zoRfuHIN2ptfxm9DpzSHxP3sXHxb/MTPvd9MY9vi9zX2i/13vswXX3Zj/+OTMfv1y62UcOUa7JoxDAAw8OCbmHjHEiOlAisbyjEl/TSAY458/nm0l2VqL9c8+6i6FH35hlFWoz3alp3RMuovJtVfMBoN/eWj0F5A+u//9yrHC0uheTpfgArPS3T9cOeLtYyJkL+iAavGfpjQy1TPJ/RzBVabrkF9y1X4ZHSp7zFJpH2cL7Ht7Zi7Xobbz8fbj/wVDag5tZKeh6rtTvRSDyE2nMc70RcZx0Ii1zkBnmOk33ed12b9fqzfpxW9tbn7mgRXfzA/y31vF2w8Z40jtGb8P1xai5aWsfhk9GZ0BNSoTU9779YTaBxTgGBhCZ5N/R7al90BAFhQV4EpH/wOeYXFyH0qhEsf3YzqUDhKngqsbGjCrPeGYdUh7yDQLJu7fAz/MKBNfH4AcAzd+CbuOd6DcOVEDDr4mUsTj19i5WubOx3BwhJP+0TzWzpnKoKFW9AROI79j4/FtTf/GLXpKRhQfw8KCkpQsfMUBh58E8HCEuuE2zr3JgQLV6H1eAq61mchWHin5+blLl/eigbUTOq0jqvuF618Jm4/Px20tph08wOoSdefNGzi9WPbOmfDT13kBmP/42OtNp32xDVuGUD8ts69CZNufoDeHP3K9/Bd43BiXRaChSXIK/wB/iV7QNTyqQFaAfIKi63jzXXe8vnpEKV8OqaX+VjBdGmLb0ew8E78S7b9QMB06MfyXVh+ITSOuQHBwlVoSZmE+b+/06GJ34/r2uZOR15hseM6x3Qmvfmhj8uHc9rPPifzCr+L77+eDVjXdHUNyd1wDGPnr0X5cXPAdQz7Hx9nnPfFdOClly9t8e3WOa/8DiO16wBq01OwoG4Lak6tRMVOFW32lk/Rd/VVnG9+nquyI7Rm/D+tvhwFBXdifrY3tDblliuQ0VZv3JgrMGFoBKnjp6H8eBWKsg+icc5LSps7FBmRbEyu3hslz+9x//QieuChlc1dPoZ/GNAmPr+xyBrchT1fZGH2332Gh4OnsHVbKgZeehVgRJe2N282/nsF1aEwAsbU2MblK9HS0oj25kbsXv2o4RfAgrotePvnu43PrUJ9i8oH46Zr+llTR1HL13t9FSkx1tc/zcTZfhV4YNxAdK2f7BmkAcC/1jWjvVm1gdk+MOq5e/UzWNnQZLWdOUUUwL1Y2dBk5TMH9UAV1rSo/e5pRzXNZH7OZrzz8w/irq+fzllffx360O/hYBawrQazX8+x9um64WuMtmnegNduCxluS1DfovrOzk1PaxdYWA8425s3o725Uet/Km3C0G789f2hQIzlM9HTzM83j5d6eGu0jsWp0ufR0qKOT3vzy1ZfgHb89DTl5+4zj+JU6fN4t2UzVk0aAFz3oJFnA9be9qlVT9U2+rRjFda0bDQ0ivwVDWhfdodR03vx7w1brDK8/fPdlk7HWV/eLom3H9edK35AAEANVu49aV3/AOBU5VrrmuU8L6tUfzDP4+ZGbF/2A4RLa9Gq6czjYOIuj/pbP67q/DevjSr/Sse1Qe/7idbXT3c++00ZdbE1WHITv18FaqYNwX+9MA8wH/a1KHT8fl70ND/d+ebnbfk4KckahK4Di4wT7B6M3rMb3QD+dmc2Rn31JdozU5G/ogF7ikNoC6mnGL88Jn4jx0TpK7/U7sN4beNRZNy6Dv/jdDse2fNXdBsNqaJL5lPAINzc9Asr36XBS/De6AIEC7dgT06J48IPUr5waS3aikOovr4IwcISlO0bj5+te8yhiYbb70wQLi3CpMEHsWP+OOtma97c0Uv7nBw1GpctVZGdip1ZKKm7C9Aip2Y++4ReiNKCYuQ+1YFuV31VpMPQF25B16ydjpt7LPR1+yXupwZD+zf8xrHX9stG/oi3jHZLw9V3LzP2O9tHZ0FdBa7eNFxrn0+w9rYDWFC3Be3NZZiSPghXPrLXNdiNRjZKOlqsm+HbP9+NCB5FaUETOvLnoDoUtqJp6qGqCut/mmGcD6ov3PT+syg/ftoTETejrX6tpx4KVeQW25YbeWYYUyk1uH96kRHx1S+GC/HLHQNw5YyfGH9X4P5xPVYb8/Zxnq9uEj++nHPdD4gY7TYQn7X9I9DLNWtBXYlanmFGSLp3ofqHL2tu8ZTPPK7qHC/bN94RfcN1l+CT0d9BsLAENUcn4+5Fe/TMCRFf+Xqn//3sc9J82DdR53kjaiZ1YlPRL7WUwdZ5v3PTctcDW3TClTNR9OU7jqVIOt7yJceF4kcGX7FldOpeQX3Lt5Gy5Crc2DBQ2w+MrH0bLw5rwKSbH8BOx4DQncf28xs5KuIvX9/4KS56uQn/e0IuMraqAYJJ/ooG6wbkngvHNjPKtw+dx8yy+Jdvyi1XYFBGLuZvVU9wzrVXfvj7OYn1pIq1Xbw686aoTxlEa5+BBzdbJ27b3JuMQZYdOeXw+uoDv/bmqY71SNHhfl7OpN9YZA0205lfyLqAth486tF5qUJR9mlkzux0tU+KMThehdbjJ6zpB3UcovnBmuIIatOOqnwLMfONgSjpaMF9PX+0otnhyokYExlp3Rz0vuCMiOv1jUZv5TOxdX/e+DFOjJ9mDPiKEDz9EV57dWSU9mGw48Hwy+/mfPHLRknHu2qg/sHvrOMa/zUr1vJ5MQcQzs8x/LbVY362ugctnTOVzKLEW9/eyneu+akHLzU4XYWm4bc6HqLMh+DcDYNQ0lFnPJjW4P7p9sNxzdG8KA/77vJVoGbaCGsQbuNXPjduPz8uPD8y+IqPxs4TyJx5A1KWTFI30NyhyABw0cshHBxyLf5peIOx4E5NL0bLc37wnGNqtCdzFP5+dg2WTT5l3LSKkbvhsDtT/FhP8upEOtcXLabVf4pDyMS37ut0JyFcWqu1j3r67R8qUPPgVchoM9vOHfU439iHzmMZuOTaI+6EJHAOluxIUf9w6uBnVnTYxFxfaP7nty6tv0irL8fLR8fh+393CFNuuQLdDdO0zzfbxyxf/7bP+Ydqn9wNh4HrKpxRwW3LtX5lX7MaO08A1z1oDLYHY1/17ISPd7hyDcpGHrCOkbmuSGCoqWFG2uLd6Ajw6/WT7d59foQrZ6Lg9E68sGiCO0noBXIGxHqzUrrWjR/jRHeH8eSoRsE9H76D2vSFaAql2GHpypmYkq6mpXiexhhPyPjK1zux6cKll2Ok71MwAHThL89mAbgXNdNGuBMJ6nMzcxYBZmje8G/d+DG680uNp5LYyhe7LpY2Rhx+pm4hfrVjgGsRp47ZPup4+2P67UPnscutKUgv/uVTU9pA/orvRIlcuPH3c3ImderimTlzB6q1n0qITjS/hWgKjTLaNJpOJzGdOYXYXHQ7Xkq1n77TFu+mU+8wo3fX+fX7ocaNogrrbx2u7Vc6fe0Rx+n3ZPvfcOWMp3H/uC+xY/44Y6/ePhwVdXnZczysiKtnqlat7XSvbfPirq8f54YubfF6tB4fYk1129csdz81pnXNaKo1mFV+PUOGIdjVYzyg9RYtU6R2H0Z7ZiqAKjw22Vxfmlg9/LkQdKp9zOuhTrhyIsZ9tc+4B0PzU9fnk59/pKnVmj01hal/rtJ+4Xh4MYmlfPha69wt5oO5YHIqxkTSceUje63FjGn15fjRvvFGuLkMRV++Ya3NWTqnEV2zvrCeePY/Xoz52WlIqy/Hj33ymCHlspE9xtOSuYA2cWKdg40Vt99FL9+DP4RyjKmUOzDkQ+e3IP148qW96M5XT4RloV1WlCatvhzzdmR51tLA1T5qesTbPu7yqTzeY2feMGomDcDJUd91fI6aJizDlHRzGqa3m4f6hlLN0cnW1IP58xZp9eUJtE8N7p++GR3586w2cC/g3vXQGGuqQ10YalDxzhfWtFHNqY8Siny52y9ZkvFrmztdrYMjfcEP//ZR56Tepjs3PY17jts/QxI/bM1XFdb/dCxOrFNfvrA+c9kdxnRkt72uTDuuaYtvd9VV9bkIHsWvdgww8lyP7vbPHSVom/uf2JMzw8hjng/6NUtNc5r9PoKIevLPvwVFX7Y7viDC2oc/TNgkc3wZ57qfmjqpQcXyj3AkZzKqQ+Eo16warNyb6jzexjHSrwu7HhqMjnb7+uJ3nUtbvF59y3JrE9qbx6K73RvZ6ev6nk9+7mUXmetGWLM0+nTtnuKQ9jMh+hci1HQy+9kWN35RL3OJCbuv9AX92X59Qax+nt/5Sk21vw0XQUSbvzRlRlokYvxgWC86LS2qTvy4Tvy4Tvy4Tvy4Tvy4rt/9lhi/R3e7MchVkcCy0G+tG3x8fj66hMvnoxM/rhM/rkvAzzP48v+RVTcRapg44pcc4pcc4pcc4pccF66f+0ee1Q9vViXsx0m8fBzxSw7x640kBl+CIAiCIAhCvHjWfEVgj8X0bTdMx/RMx2A6pmc6BtMxPdMxmI7pmY7BdEzPdAymY3qmYzAd0zMdg+mYnukYTMf0TMdgOqZnOgbTMT3TMZiO6ZmOwXRMz3QMpmN6pmMwHdMzHYPpmJ7pGEzH9EzHYDqmZzoG0zE90zGYjumZjsF0TM90DKZjeqZjMB3TMx2D6Zie6RhMx/RMx2A6pmc6BtMxPdMxmI7pmY7BdEzPdAymY3p9n0S+BEEQBEEQziCeyJcgCIIgCILQf5DBlzdUxhEdR3Qc0XFExxEdR3Qc0XFExzn7OjL4EgRBEARBEPoLMvjq/SuSCtFxRMcRHUd0HNFxRMcRHUd0nLOvI4Mv4dxH/SJxX/5qMKcCKxuayCtThPOB/BUNMf1C+4VMuHJNTG9nEARBOJN4Bl+RSMSal4wY/9R+8xUE6jUP+lcm1QVOvbZAvcbEzGfcvK1XShyw8rnz2H76qw5UHtsvWvns/WYa21Yani82P/09VyqlN7/8FQ3GAIb5JVY+N4n5VWBlw0Z1PH3r6yaaH99vprFt8evdTz9X7Fd1VKG+5RVUh076+qmftfTuV3v5drj0Oe31JC9b/qbO/Tnmq0TatVfxJFtfM41tMz/z/Irm5+fN/Pq6fBeOn35tNo93TxJ+3m2zfHlavzIfMpPxY/kuTD/nMdr9irofA3C0qXnfBbm+6Ody9PLpYwJ1nzaJIGL7Oh7eo/nx/WYa2z6f/TyDL/UT+So0FjD+hUtr8e67Y/HJ6M3Wu/LMX3A1X6BrvmX+2dTvoX3ZDxBAAAvqKtR7ogpLkPtUCJc+ugW/DZ2iebYv+wFgvAw5c90I4431aRg7fx3Kj9u/GMvK596vl8+9rTQ8Xyx+4cqJGNO2EU3Dg9oLgHk+3c90sbf4dmx+C1FaUGy9s8tMY9vR/TQVrW8N7p9e5HrPVzQ/vt9MY9viF90vXLnGeC+q+WLiEsdxj+a3fe50TLr5QdSmp8RcvofvGo8T67KMz7oT87MH+pYvXLkWNZM6rfO45uhk/GzdY0nV187Ft7mfrXP7pS2+XauHrbNhfn1dvgvJL2Qc71XqHYu//4ck/Xj5ts+djmBhCVYdsn/6KBk/lu/C9FP3BnX+rkLTiFvx9s8/AACkAsC25dZ1ZOIdSwDjnarmvmBhCXI3HEZq1wHjvY+8fOHSWrzboo8JTK0igCVYf2sGDn7qfvcm91MpfL+ZxrbPZz/P4IuRVl+OgoI7MT9bN1VMueUKZLTVG+/tqsCEoRGkjp+G8uNVKMo+iMY5Lylh7lBkRLIxuXpvlDyn0TZ3unVzad34MbqdH3fWeTh4EfZveAB7jlyOydV7jb1VeO1Pz6DmVfPFpSo6qL+4Wr0k3E4z8+lPKeYTXri0Fn9e/YwWNbSnTfRIg3vakUUhEsXxNKQ9ueSvaMCfV69GS0sjdltllGmd/uLhYBawrQazX7/cnQQAGL7GfFrl/crbD/RotLsPVWDC0G789f2h2j5/Hg5moWu9enk2jJdS78nJQ3UojAV1m/Di06/SPuR8+a/dd8KVa7Q+5UzTXwps7o9+fun1dPbP/BUN2Lh8pVUGO4oNzznpLrtgUoOVe09i4KVXWXv0a4az3/E2DZfWolXT2TME0XD2X/1zVP6VUfr+142xyBoc+/msqEDNtCH4rxfmuRMcRBsTAMCCuhKMaXsOlV/GNMT4WuJpGUdozRE+c2KmlWQNQteBRcYJdg9G79mNbgB/uzMbo776AtsyU5C3ogF7ikNoC6mnGJ7HG7abcssV+IY1ArfLFk/53Ns68ftVYdolH2Htq5fhyfZOXJb/opXek5GL/EO/RV5hMcp2puHqu5dhQP09KCgoQcXOU9oTxwzMfv1yY8qvGJnrRiCvsBjBwi3omvWJdQM9mTMRV28ajrzCYqw6lIOSursQQQRt5IkQxoVv1dgPUX19kSrDvvH42brHHBpvff0ZsHi2EX085U7CgFGnseWJfTiSMxFXb3oarceH4Vv3dcbQft5tHW/5uA5fGz81GNq/4Tc+ftnIH/GWFSW++u5lhtujKC0oRu5TH3keXhbUVVj9yu5zB4zBTRmmpA/ClY/stW6Q/uVzDtRU2j50HsvEt+77DMBg5I37HNXXFyFYuAUd+fdCLTuowvqfZuC90QXIKyxG7oZBuOn9Z62b5MlRo3HZ0rHIKyxGxc4sq98vnTNVezIfhJubfoEB9ffghoJilBnnl6qTOr+sqG3hFuPJ3C57D4BLg5fgvdEFCBZuwZ6cEmsphbppLLMjAN27UP3Dl628Jvx4ODHbjrefk/PJT7VlBe4fNxCftf0jYAyo24o/xW+un+q5/rA2/c0P/0Nz45/r3q/+No+r6gtl+8Zj/u/vtLXXXYJPRn8HQSMSe/eiPY78idTXT3eu+tkPN1Mxpu05fP/1bMBchuB5SFGYHuHKmSj68h36sBdr+cKVa1Bx8XZ63ujE6ode6mtyvvl5Bl+O0JojfObEmfYK6lu+jZQlV+HGBju8DwSQXfsO/mNYAybd/AB2OuzceZxhu3DlGtRM6sSmol869idSPj9dvH7hyokYd/gTPJ+eirTFu62nfEUIjXNeQgAB/PngUSuPHwGMRdbgT7Fj/jhDtxBNoSG45NojAIDUr3bhhUUTEEAAjZ0njDz+flNGXYyeD99RU0wIoHXjx/jvzBzHk5+3vv5E+yxsq8eCAQGjjOnW7mh59DQ/nbd8XIevjd9YZA1WJyr3C1nnR6vW5+x09+ldhaLs08ic2YntzZvVxTkSAZBiDG5WofX4CXuKc97qXspn40xTn/tFwzTjwcns20dxqnIixkRGoqSjBdubN2PXjGFaPmDgwc2Y/frlCCCgHjSMMuhRXTOPWTbzMSRa+aClqekXM/K+D53Heq+fG13rl88sX7zt56c7N/yyUdLxrhqof/A7a5Ziyi1XYFDGtfjJ1i3Y3rxZRSOjEGv52N96FNT8HEu7rd6aYl46Z6pnaUb89fXXnat+Kiqlph1br/lna0mPOZWrBsHHcOUjm637l/KoQM20EdaA2k1s5avC+lszsK/6dito4kdsfopo9TU53/yit04MNHaeQObMG5CyZJIaLecORQaAi14O4eCQa/FPwxuMuWU1vRgtj4m9zqXYmtJIBr+RaLw8HMzCyVHfNU78qRgTGalNPSZOX5XPpK/9+pq+Lt+F67cPnccyrAG5SeJ+0NbsmGs8ZlhPxvFRgz1H3GUbi6zBXfjLsyO0fXCc+wAw8OCb2ueXYNLND0S9UIdLn8OyyaesQWHuhsNuSVyoLyJwGjtPWNGBXTMGY1/17KhlQ9LHw8u57RdC45gb1DG4rsIRPdHXEwW1NUW9tWk85QtXrkHZyANWH2aR+Xj8YuH89fNODZukLd5trd82CVfORMHpnVi1aLxjfzyEKydiTCTdip6bSwL6cgrYv76Jcbb8yFUltoymrnXjxzjR3YHXXh1pjZxVBGYhmkIpdli6ciampB/EjvnjouRJMRbjZ2D/45Np6DPe8iHKSFQRq5+xhk27cVXsPIXMnEUuHffzngD70HlMrRsLGAsY/z77KzI/z/3ctB48aq2bCyCAh+8a55iytYnNL3ZdrPT18fg6+KmLZ+bMHca3DhWJ+y1EU2gUSuru6pPyPdneiRHT37G+FbWgrgQTDmx3LG4HgHBpESYNVue+ihirab7o6J+bAqALf3k2y7peuHXe88uN7ef/9toK3D+uR/tygzmFaaOiLua3QBXm+dvSwtaHRbQ80dZFJn88nPSfHxBA2uL1aD0+BFffvQww1+fmlzraReHXpsqvZ8gwXNd1GuHSWiybHD1aZpLafRjtmakAqvDYZPPhvP/qe/76OaeGdfJXfAfjvvrSaEdY59UXDdPwfLr7DNG/4R+9fPbifbXo31xy4/+AFd3PJpb64rzyY61BMBdMTrVGteZINq2+HD/eNx7ztzahvbkMRV++YX07bumcRnTN+sJ64jEjWTzPK6oDPHgVMrSRc7tnUfDZIVw50dVZjYHn+GkoP+6Qemib+5/YkzPDNdf+HCqWf4RBszpV+zw0BifWfdNzsXdjhtzLRvYgc2an5Ze2eDZqjk422rQRFRfvwL/N+pU7O2Gwo63Nxcf5K95yPLmcK8fh60bb3Olq7VPHuzGfD+ZAYNdDYzAoIxfztzZZx3XpnEZ05M9De3Pyi5LTFt+u9bnNuK/nj1a0A4DRPxux66FsfL7EjGI/iplvdDv6nHfA4iStvhx/COWgpKMF7c13YMiHnznS+fmlX7NGoqTj3RjqWoOVe1OdZXOtjRFMalCx/CMcyZmM6lAYafXlmLeD9VO/Nj3oOK67HhqMjnZ7cOp/nVuvvmW5tQntzWPR3e4e7H29cX6ZpQxXbxpuTb3q07Wrxn6IXxfNtQZEZtTrhUUTXI5++I8JhNgIBC4d7xjaDUh1j3oFQRDiY0HdFsx6b5jrZzHOdapQ33IVPhldai13WFC3BWWh37p+bkWIHWlTQWD0yeArAvt3uPoC8UsO8UsO8UuOCCL417rmPht89Uf5/PwW1G1B2Uh7VdjAg286onmMaH6JcKH59dam8fr1hvglh/glR6x+nsFXaqr6thw8JqbMSItEjB8M60WnpUXViR/XiR/XiR/XiR/XiR/XiR/XiR/XiR/XJeDnGXzFHvmKUMPEEb/kEL/kEL/kEL/kEL/kEL/kEL/kiN8vicGXIAiCIAiCEC+ebztGYI/F9G03TMf0TMdgOqZnOgbTMT3TMZiO6ZmOwXRMz3QMpmN6pmMwHdMzHYPpmJ7pGEzH9EzHYDqmZzoG0zE90zGYjumZjsF0TM90DKZjeqZjMB3TMx2D6Zie6RhMx/RMx2A6pmc6BtMxPdMxmI7pmY7BdEzPdAymY3qmYzAd0zMdg+mYnukYTMf0TMdgOqZnOgbTMT3TMZiO6ZmOwXRMz3QMpmN6fZ9EvgRBEARBEM4gnsiXIAiCIAiC0H+QwZc3VMYRHUd0HNFxRMcRHUd0HNFxRMc5+zoy+Dp3WFC3pddf8xaE84cKrGzYKL+YLgiC8DXnnF3zlb+iAS8OM1/K3TeEK9dg76T3+tTzbOH44cJty8/gr0VXYGVDOaaknzZesjvH+uVq9UL0YUp2Rstkk7+iQb0SCUDX+qw++ZHPviRcWov3fjoY7422200QBEH4enFORr7US1Y7sanol+4kwWifOy/egerri9RLTM/oIKcG908vQrBwCzqMH5UzMV+qWrHzlGP/maRt7nQEC0uw6tC58RDhxnwH3s1Nv3AnCYIgCF8TPIOvSCRizUtGjH/u/WYa21Yani9Wv2/fcgUy2uqNyIDpV4GVDeql0eYLge853oMIIlhQtwkvPv2q40W9pp/+olErKuNTDrN84co1nhfrKr2zDOqFwL3Vl+VRaazcvftFgNyh+MbhA6hNtwc/EUSQv6LB0T7qJafG/mUrjBehNmLnpuUoP37a9nN9DgCES5/TXtCqv/zYLJ8JKZ8jzdzi20DE8cJXsw3yVzTgz6tXo6WlEbtXP2O04cuoDoURLq3Fn1c/rbWr2m/6OT5Xq1eeo32Wo/x4j9E/XkZ1yHxBrzpe5nS33hd2bnoa9xzrMfycx1Xp1ed4+88BqzxAxHgRdB6qQ2F+fF3lNtPYtllflk/8uIf48Xzixz3Ej+cTP+4Rq59n8KV+Il/d1APGP/d+M41tKw3PF5tfBR4Y14P9G35jpahUM+JSgmBhCcr2jcdPfv8PRr7ByBv3OaqvL0LuUx3ozi/Fb0OnAFRh/U8vx+dLxiFYWILcDYe1T/OWQ+29FzXThmD/4ypPsHAGZr9+OQIIYEFdBaZ88Dtj/yq0XvPPePvnH0T1+1eaZ7dvuatDp3z9TpU+j3dbNmPXjGE4mfNdtDdvtgYepyrXYtXYD61oWNm+8fjZusfsNr5uKD4ZfQOChSWoOZqHuxftMT7F+zkAkFZ/LwoKVFurcv/QWKtkHg8Td/vZKbqfM4e9nb/iLfWSXU+bAgNGncaWJ/bhSM5EXL3pabQeH4Zv3dcJADiZk4urNw03Im16JMlZD7Ne4co1eNHRPhPws3WVSKsvxx9COZhc/REAIFxahODpnXhh0QSES2vRVhxytOnD6ysBoy+Ynx8s3IKuWZ9g7W0hABWk/+RY5VFl24fOY5djcvVeT3/xOx5+7WfWl+UTP+4hfjyf+HEP8eP5xI97xOrnGXydy+gREnNdj8kXDdNQm56CtPpPccioXLhyIiYcaMTs1y93aKNTgz1HMnDlI3tdi/0rMGFotzYorMHKvSeRmbNI07jpPQ8rtx9p9eUoKFCDyIEH3zRu7ndifnYapoy6GD0fvoPadHVIWzd+jP/OzDGiXwC2mZFEYOmcqTGshaqyImXtzWXGGq++pgL3jxsIXPcg/5xt9VgwIIDUr3bhhUXpekZj3wSA1ZUQrX2ebO/EZfkvKt0tV6DbOCZTbrkCgzJyMX+rinDZfa4KRdmnkTmz0yj3VIyJmE87fv1HpwZ7jkQ/1oIgCMKFi2fw5QitOcJnTvzDbDamV7x+jHDlGpSNPIDGMTcgr7A4hnVFiZdv6ZypCBaWYN3/cdiaUtIdYvfzR/eI3Y/rAMBYeg9E0cXjt6CuBBMObECwsAR5havQetzTVQxi89PTnLpjVpQor7AYeYXFmPbENVq6H5pH7lBk6Ekaen39SFu8Hk3Dg6gO3YN5I/Zi1aLxduK25cYgV5XvmjuqDLcQGseoSKId4VKD/KVzpiKvsNjRf5yoQflf37845uPh3342ppf4eRE/L+LHdRA/R5qJ+HEdEvTz3FEdoTVXJEatKVJroNxhNhWV0tfeqP3mVFn7sjs8fjp2Wg1W7k3FlTN+4lIAqd2H0Z45AAEswWOTe/umWADYdQRHcibbU5C3Dncp7H/m3zpL50xFxc5TyMxZhIAZ0ZjxE0NXhccmp6HrgB3F8vrZeRR2Hv2z3J9r4vXjOgD488GjSB0/DeXHTyOAAB6+axy+0XXAivQgTj8AOPm5moo7VTkzSuQrNj89zd5Wx/rqu5dZ+/XyRcfWPBzMckS1dEy/Vq19ALjapwYr9w7HNfU3IOezt/F8ulqs37rxY2MqWPVpu3QL0RQahZK6f3R8lk4AAUf/cTIWWYO78JdnL3PUN1q99TQ/nV0+8XMjfl7Ej+sgfo40E/HjOiTo571bJYDfSC9RWjfud9z0YEQnWlImGVNAY9Hdbi6Q9sdcz1PS0YL25rF4//Uv3BKCPt3WiJpJnWic8xIAYOmcRnTkz7OnmtqW9Tp9F0uevmi/tMW3o+boZGuKrOLiHfi3Wb9yy2LmyZf2ojtfTQfunRTSIl9m+0zFmMhIlHS0WIv7zQX/NZMGWFOJ3qiPs75tc19C0/BbrfZ2D+D96BliTwfe1/NH6xuf5tR02cgeY1pQPSz01j6tGz/GRdddie43llrlM7+ZqPqPvrDefVz1Lziw/qOmNE3yV3wHEw5sT/inJvqiv+iIX3KIX3KIX3KIX3KcLT/yO18pgM/IzUmkX3X+v/OVmJ8/ouOcu7pwaS3aftyNFUU/ptEuJ737Ia7fgIvNz0/n/Z0vrvMiOo7oOKLjiI4jOk7/6Xq7c5012uZOx7Op36ORE0HoK8yfhdhT/GlSkcLYqEDNg6Pw+ZLihKNegiAIwvkPiXydmz9OKQiCIAiCcCHQJ5GvWOc4Y0X8kkP8kkP8kkP8kkP8kkP8kkP8kiNWP8/gS8/oNIkY/xl/Wb9r5Mal89n26MTPQPzYtkcnfgbix7Y9OvEzED+27dGJn4H4sW2PLgG/JKYdI9bCsQgivl+vjB3xSw7xSw7xSw7xSw7xSw7xSw7xS474/ZIYfAmCIAiCIAjxEse0oxOmY3qmYzAd0zMdg+mYnukYTMf0TMdgOqZnOgbTMT3TMZiO6ZmOwXRMz3QMpmN6pmMwHdMzHYPpmJ7pGEzH9EzHYDqmZzoG0zE90zGYjumZjsF0TM90DKZjeqZjMB3TMx2D6Zie6RhMx/RMx2A6pmc6BtMxPdMxmI7pmY7BdEzPdAymY3qmYzAd0zMdg+mYnukYTMf0TMdgOqZnOgbTMb2+TyJfgiAIgiAIZxBP5Es4H1C/oi6/gSYIiVKBlQ1NaF92hztBEASh3yGDL2+oTGG+NkW9rkXXmT9U2d7ciN2rH9XyGBe45kYtHzyvYFF5nJ9rvqrGO8DwK5+bvteZZbL+oxfu2P1gvA7HW0ed+Px6h7ez9xgl4dcH7dI7Xx+dfn7xc0Knd7/e+5xO736KvtDp1wv9lU3RiOanIzpOPDrndZsfn3j8/NGvS7H11eh+Nhe6jt1bbczXrzmv0fGcd+bnOvO4j5N5/Nyf78WvHm4uPB0ZfHkJl9aipWUsPhm9GR0B5yr+cGkt3rv1BBrHFCBYWIJnU79nHdgFdRWY8sHvECwsQe5TIVz66GbjvX0LUVpQjGBhCYKFq9A0/Fa8/fMPHJ7LJnfi4KcxFe/Msm25Ue4t6Mi/VxusnElU+7nfERkv4co1WDX2Q1RfX2TUaQZmv365WyacRcKVa7BrxmDsf3yscYxKkj7u5yr69SJYWIxJNz8Qw+ujEqUG908vst4JKsRKyLjWr1Lv2v39nW5Bn9A2dzqChSVYdUiWwcQHu7futgZLs94bRtq0BvdPn2pdX2qOTo7xuB7D/sfHea5LC+q2oObUSlTsPOXOIGiQK5v3K5Jp9eUoKLgT87P1NLU95ZYrkNFWb7wupQIThkaQOn4ayo9XoSj7oPVSauQORUYkG5Or92oeADAWWYO78df3hxp/V6DmwatwYt1k/CnFWxZWPs6Z0B3BX57NAqwBaiPamzc7Xg5t73dGy8KVa9HueAF0o5avCvUtr+DFp/9k+NlPFX5PhOHS552f4/vEyOrhxeNnPSlV4bU/PYOaV40nqOY3sfa2T6166i/V1iNpZn2d9YTnCWr36oVWGaITWz3Od93DwSxgWw1mv57jSlF9xOpnlWuMp0zl54xoqvY2I2i8zznzmE+/4dLn0brpFbz2J9WvVZ+0+5YdldvseGJWEdCV1lO4nRa9vjZOnfM80s6vyrXYvfoZrQ+ptPwVDa6n7iVWezkiiZ4obYC2g5fE6uHP+aarwcq9JzHw0qusPapd3ccbnmiMavcfIFxai1ZPn3EfDzd+URrjuNE+p+Ouhx8Xgk6/t6qHDf8HN9NP3cO7DixypZv0/rlL50yN46Gmdz/Fhacjg6/4KMkaZByoKtS33IPRe3ajG8Df7szGqK++RHtmKvJXNGBPcQhtIXvEbV9Mp2JM23NWxCV/xV0o+vKNKJ3kLGMNLKYic90kY9BZhfU/zcB7o1X0L3fDINz0/rMoP37aGLiqJ4Ng4Sq0XvNDrL3tU6Qtvt16sutan2Wk36m98y8b157+d+X3VAcypr+D8uOnfZ8I9c/JfaoDpw5u7LUN0xavV0+vW71rX/zKDQA9GbnIP/RbBAtLULEzDVffvczSV+w8pUUHVSTNHR3V2ydcORNFX75hPT31/mLrrxMVmDC0G/s3/Mad0AtVeGzyF1Z7m/0qWp9zR0HL9o3Hz9Y9BgDoGTISF//pGbQeH4X8EW+hYucpZOYsUi84Lw7RPACA6y7BJ6NvQNB4mr570R47jfDkS3vRnf+ga/obUc8vADg5ajQuW6oigxU7s1BSdxfa5v4n9uTkaYO0iZhwYLujHdiTubsd+jf6dj5TgfvHDcRnbf8IGNdzv76woK4EY9qWGcfuMFK7d6H6hy+7/GLFiFga14uyfeOdUZo4+9yFiN+9NTrmALksjvvvYFz5yN4oA10hGp6rivqlVjUvGTH+2fs1nWOO8xXUt3wbKUuuwo0NA1RqQKWPrH0bLw5rwKSbH8BObXA4oO4eFBQUGzf2f0b7sjus6cZNRe5Rt7scfuWzy8S++mn+lZTftuXIKyxGsHALumZ9grW3HUC4ciLGREaipKMF7c2N2DVjmOanP/WVYUq66qDOMumY+0NonPMSIpEI0urvwZSbH0BNesDKZzSvhe1XhT8+0I3lsxZbKf71fQ4/mj7VPgbaTc+v3IoQGue8CABoPXjU2htBBD3mtt5+uUMx9MAOa2A5YPFu7B0yHMGuHmDXYRzJ+S52blqO8uOn4z8eru3o9eX7zTS2fXb9xiJrsJ1mO3j9rL8iEQD70HnscpR0NGDtbQe0/Xo+mwgimDLqYvR8+A5q0wMAImjduB//nZmDf4icRupX7+OFRekAjuG/XnjAyjflliswKCNXDd6bjainXr5t9Zifra4Hv55TiBufmBi1vmn196CgwFyisNeOvtHzy67LwIObMfv1yxFBBFvn3oTgvNWIRB5FU2iUFWl/OJhlDRSc7WfuUfv+n7wsfNEwDbXpKZ7yOdrZZ9s8HizfheGXbRyHMkz54He48YlrAETw7d76gvGXvcW37T1qn36dM8tnrVtin7OtHv+SrfYtnTPVKh+rV2z1dZdP6Vi+c8Uvrf4e3OC6t5o6t9beetSarnw29Xta1NivfDX40fSpxr2wBLV/nex48IpWPu6XeH3PVz/P4CsQCFihsYDxz96v6Yz9jZ0nkDnzBqQsmaRG2LnDkIEAvvEfh3BwyLX4p+ENRjRDhTOt/Nbn2OHrKbdcgYxINko63kW7Nj2ye/VCVzn8ymeXUf+FWeevzSodyxef30I0hYbgkmvV4GPgwTetpzHzifn59FT8a10JJhzYYOxfhdbjqsmdZdJx7vcrX8SV3dy/oO7/ROQ3t2tP67HUVz1NmlEsAL7ltvGWP4AAzHicu/109L1p9feioKAEE57JwH1tTXj/T8+g/LjqJ/EdD/uv3ut7vvjtQ+exDFxy7ZFe/ay/AgEtOrAany3432hv3oDXZoYcOh3uZ/TTiNPfc8mwopx25JL5xVZfta2iqGpNkRm58J5fD3oiUm6/J1/ai2/kvwSgCtMu2YkXFk2wdE7sfPp55fZztLPPdiL1NdPY9rnnp9Z85W44DFxXgbW3qX6VCv++0Nh5wpgx2IxdMwZjX/VsPJ9uR+6d5TP3qH3u43Gqci3KRh6worpm9LL/6ns++zmnhnU/W2tu2dtPtneiJzNHWybAy6H7/c/tnVZ+M41tx+qXWH3PLz/3HTVuWjd+jBPdHXjt1ZFqvda0EcYT9EI0hVLssHTlTExJP4gd88e5HOzwtTmlZv5nTo+cm1NRVSjK/gp/fX8o0hbvxp6cEt/F9yc//wiw2sAbms3McUf6EiNcuQZloWdjDDN7Kcka5Pi7t3L7oa8DAQDsOoIjOZO1tUXfwThjStpE3XC32BExwbp4Zs7coa2R0xmKb93Xqablbh3uTrQGYasOXYRLrj3iSHH3udaDR421muo4P3zXOHyj6wD+P7ruUtG68WN055f6lC1Z7Khfb+eXH2n1Tdg6PA//76PX4Ft73vYM1hiNnScwwpjiZ6ioi75mUWFN9ZA1S355zmfSFq9H6/Eh1sOaf1+owP3jerSF2c4v9fQMGYZgV48x66EiVr2R2n3YuHZU4bHJ5jINwYtzajhWHg5mGfdw83xRsyD+31xU933zfiHEhudq5AitWeEzcwpqKsZE0nHlI3utaaK0+nL8aN94I9ys5ovNxXa/ntOIrllfGFMFg7H/8alqfYlj8WwZrt40HNOeuMZRBoZZNm/5vPiHAW0S8nOs+fqmcSFZiJlvdFvz3+3GQt4IIto6lkbsnXTIiiCZfnq69wLtLZ8ZcrcXTaupwoh5A7bK5/2ar7u+ea6fzqi4eAf+bdavAABPvvShVu4QiXx52yuCiLHWZobhqcqWVl+OH+/IsqaNaiZ14q1r70NteoprYfhUjGmrs6YN3P46epqfzl1fPx3OYb+2udPVOiaj7dqtxe4L8asdA4w+dz262z+3PMKlzzm+LFFx8Q4r6gPa504ibfHt6ltOxrRRxcU78OSsxQBOA6RcMAbM87TjapaN1QO91tf91fWpGNO2TE1V4lHf80vH/bcavA7HrP8rA/s3/Nraa/Z7/cshZrm3zr3J0Q7+a1liP776Hj90XW9+vP2c9KefqkcNKpZ/ZD1Uuc9xu5/WYOXeVOexa96AtbcdQFp9Of4QykFJRwt2PTQYHe32tY9f5w4416k2j0V3+0lP+fzqkWh9/XTnol+0e6vepqrfm8tMnF+IKAv91nfBvF0+17KUD35n5TGv6TWTBuDkqO9qfYF7JVNfnfPNT37hXhAEQegnqlDfchU+GV1qrflcULcl6g1eEL4O9MngKxLjW7xjRfySQ/ySQ/ySQ/yS40LzW1C3RUVbDAYefNOxlCRev94Qv+QQv+SI1Y8MvlIcC8n8iYiOIjqO6Dii44iOIzqO6Dii45x9nXchjyAIgiAIgtBvkMFXLKM3iM4X0XFExxEdR3Qc0XFExxEd5+zryOArfiKIuHclhfglh/glh/glh/glh/glh/glh/glR6x+nsGXntFpEjH+M/6K+H2AS+ez7dGJn4H4sW2PTvwMxI9te3TiZyB+bNujEz8D8WPbHl0CfmTBfazfdoxYIbRIjKv7oyN+ySF+ySF+ySF+ySF+ySF+ySF+yRG/XxKDL0EQBEEQBCFe4ph2dMJ0TM90DKZjeqZjMB3TMx2D6Zie6RhMx/RMx2A6pmc6BtMxPdMxmI7pmY7BdEzPdAymY3qmYzAd0zMdg+mYnukYTMf0TMdgOqZnOgbTMT3TMZiO6ZmOwXRMz3QMpmN6pmMwHdMzHYPpmJ7pGEzH9EzHYDqmZzoG0zE90zGYjumZjsF0TM90DKZjeqZjMB3TMx2D6Zie6RhMx/RMx2A6ptf3SeRLEARBEAThDOKJfAmCIAiCIAj9Bxl8eUNlHNFxRMcRHUd0HNFxRMcRHUd0nLOvI4MvQRAEQRAEob8gg6/evyKpEB1HdBzRcUTHER1HdBzRcUTHOfs6MvgSBEEQBEEQ+gvP4Ev9Uqual4wY/9z7zTS2rTQ8n/hxD/Hj+cSPe4gfzyd+3EP8eD7x4x7ix/P1tZ/81IQgCIIgCMIZxBP5EgRBEARBEPoPz+DLEVpzhM+c+IfZbEwv8fMifl7Ej+sgfo40E/HjOoifI81E/LgO4udIM+lvP5l2FARBEARBOIN4Il+J4DfSSxTxSw7xSw7xSw7xSw7xSw7xSw7xS45Y/f5/+JluMcMzxCMAAAAASUVORK5CYII=;" vertex="1" parent="1">
                    <mxGeometry x="-1130" y="650" width="607" height="128" as="geometry"/>
                </mxCell>
                <mxCell id="11" value="" style="shape=image;verticalLabelPosition=bottom;labelBackgroundColor=default;verticalAlign=top;aspect=fixed;imageAspect=0;image=data:image/png,iVBORw0KGgoAAAANSUhEUgAAAXIAAABfCAYAAAD1YUxVAAAAAXNSR0IArs4c6QAAAARnQU1BAACxjwv8YQUAAAAJcEhZcwAADsMAAA7DAcdvqGQAACIHSURBVHhe7Z19dBbVnce/T0J484iAxhJgrQbxhRCIoT0oIUTXg8UeQXnYAufQU8qDVlB3WbTrUTFn3UODrq0i9S3UkohHuy1rAopnRdioAZKWoiEBeVEMSxUIioq1NQEe4Nk/7r0z98787jwzzzMJebkfjsd5nvnOd373zsydO3ee3F8kcvGVCRgMBoOhy5Lh/MJgMBgMXQvTkBsMBkMXxzTkBoPB0MUxDbnBYDB0cSJBXnZmZESQEclAAmyTCCJIJBKIRNgnAEgggQixDL5NgtjO+Bk/57LxM37O750exs/2892QZ2RkIIPtwWAwGAydCN9DK6YRNxgMhs6J74Y8wf+JZR3yOp1OeBk/N8bPjfGjdTB+yjpBT/Tz3ZBH+D+xrENep9MJr57idzr6Iv686XnETrADodPBp1/Y8YXpF49WWmUNww8hx4cQ/eKla7FnzUOh+Qm6i1+8dC32rllifdbp/Poh5PjQjfx8N+SpoLuDpIrxSw/jlx7dxa+wvAa7Nj2HeSfOOlcp+PXzi/FLDy+/AA252yReuhaNdbXWf3vWPKTodHcQAFhctRXvPLDH+TWBPz8qPprO77e4aisa62rRVLcZjXW1movOv58grPgEYfjJ51BT3R+woiXulHBkvzJU1+u04cYXlh91raTjZ0PFR9VPOn4Ufv1svP3KUF3Pznf9OY92iM/WjSt/G43PzFTW2gT3Czs+L78ADTlN78NvoaCoBAVFJXgh84fYIz1KGVJj+YyJKCjaigOREzj46EjkT74LlX3TPlSdjni0Ettv7o+Dj45EQVEJYruy8Y8fvKC5gLs+7FqZJF0rDzklHULDghs76TnVgtrcCSgoWo36jHws+u1sp8CgIcCR1N8NBI+/sh9fDx/DewIxrKzZ4rrDip7J3CFnMGjqMb7+91bvQe65sG383rmSx8fourp4tBLvrXme1+tmpd706P1UOl43/qZL0L9hFW57YygAoGHBK6jPuBy3/tNRFJbXSL2jGFbWbMK6W47wp5WJyE0MQcmBeulJUJB8v4xzq5OvFXdZN2LdLS3W8svPvWr35rkuHq1EfX0tPw/s7/X1E1F6ve4er1jH1ounZfWck69Vv+VNhQqs3H8KvS++3PpGPKU21m22ylpYXoP31qxBfX0t9lgxsvji0Rd5/aj15q5T209GtEP2qMEy5YmB2obht17C1WVMv+y087uUyao+gqMYhO/ecQxABX5240Srtz63+Uos+u1sZC2djoKiEqw+monj67P5+tlYlJOFeLQSDZNasGJcsbXNv73+sOXvNUaUCp3dj+LU8FG4YtOFvA6Ho6RqjlOiJez40vUrye6D44cesT4nsAr7vu6PC0Z/rehk7KeVo7z3VoJRM5c5ZUAI8TkJ00+9Vrzoh8KLGvh1shUHCmdgRUscWdXzMGECu7YKilZj29W3Y90th5LUzxJEJ0xC3hMH0KrsI4aVNZMw6PWLrP0cn/Yp1t1yCEjznJPxX38x3DmyNz5r+DHAG+y5Lb+WyvrPeOeBPTgDoNews9j6WDO+Hj4KV2x6DttODMZ37zimqZ8j3J+u0zN8rfykeMNjo3gM1yK34RmrPSu4Zw1X6/FfXn94+WWs/b9ezu9IZBO3ofMz496qOusOVpGv34/wG3/TJejTPw+L3md3/4r8Xjprvk86JjU+hy6hM2xfP523U+ftdxaZ3+7GS49chQQSqD12kq9J1Y+OqSP9UkHdun3j8/aTP6XrB4en6C234aOX7uLLSxCdMBOLcno5xpTnYnxfajhKF5OsTQAYgex+R7Bz0Uge3xJsaTkPF4z+BgD4OXcloDnnvMrrqCYJR70AAHL4U8RcjN/7NG9EWaOOa+6my7qjGot7RZD57Qd46ZG+kp9X/bTho5fuYbrEQ4hOmIVFOVls1TV3Y/d9Ofh8WR5ueyPH2mLb4W+Aa+7GnjUPeZZXf3yd5aWXXTqffr6HVuSBdvegO/scjw7FEBzHX17IRrx0LeYOOWT1CmK79D1/xW/Hs/Zdr6gEo2aVyVKJiPLYoY/PoXOGbtG+fjpvp87bzz5cYcd3Lvxqj53EoOF2jxyYj6sGtuKvHwyUvnOjhtB+8SGpn/wpmJ98rdjI28mXprzM/BZXleCqQxv4mPtqbDtBXcq6mJx+0ifP8tJ+XuV12Es4/WCNkedt+Aq4Jib1oNus9yjiHYPoKduoO7rXqh/eIyfrhyjvjn04EOnPb2L2SjGSMHLX99FUt1kaznOUw+ln4SwvvezS+fSjS5cSMVTcfTn6N1Rbd7fM1q/QOCgTQBkeHsPveBLqRQxs2/gJWgujjnFfXYFTpev4hUP7xZeun/N4jyufgwlnP8Zrrw4BAGuMtLB8DtHjHKgZlggvPkZ7+LmvFe+y0pz6/GMAEcRLp/Jt5MtZVz8UzTjWNhRjVuxnftFK/Cjn26Q31KD4rb+speux7cR5uOInz/Dx8ky+DOV4ZFpLNKx+INUPhdOvBtEJW3B82hfkr+qylk5H3hMH8LdBwzUv5dvjfBFLej/fDbnuUeDUsB/Yjy97n8bYe/4A8INRn5HPh0lGoLXxlLUNADz+yodoLRSPS+wFRVb1PNyzM9t6SaO+bLD3qz6KqOucy04oHaWndBSUjta7dRQJ6+eHE5Gb6ItLH9yPXZuedZ001H4pKB2lp3QUlI7SUzonWdXzsFA63qtH7MOTxQtQ0TeChgV/wr7hU9BYV4uXB3+k9KgSeAi/2NkLlz64H42Ol53Ufqn9UzoKSkfpKZ0T3bXyPllW+Xi7G4zHX9lvXT/7848q21D1k0DCekG6+75cawiT1V0FYs9+jD7T2I8Pdt+Xi5Ov/wNutYYW3OXxU14n3vUnL69C7NmPrZfBDQtewZYLb7baBNFeiDFtun7s9mV/fou2Ry7HIvwSeAhTf9XM6kN5icz2v/u+XLTWXE/+6oeqF7q8bh0FpaP0vifN6pWZ7P5n0BGPVqJhYRvKixeQB7870aPKWroW+/O3a1+29nRM/XQc3ftKMxgMhh5AgB55hjJeoydhdCRGR2N0NEZHY3QUpkduMBgMXZwADXnyuwLD6GiMjsboaIyOxugoAjTkBoPBYOiM+G7I2V8YJdgy/+f8XqyjlpmG3s740R7Gj97O+NEexo/erif4BXjZaX5+aDAYDJ0R3z1yQ+rEo5XY5pptrnvSo8rKMwQZaEz9dBy+G3Kl+6908VX0jwI2wqun+LG/PAvPL+z4wvaTHcUnHX78wo7P+NE6tIOfjE4XxC/s+LqLn++GPML/iWWBPS8ym+NY5KUUOvlPW8Wf2wuvCJ/X4c+bnrd6cPJ85HIWlcLyGitjTmPdBmlCHdVvcdVWvPvAXr5GngGNbSP84tFK/JGcmzmG39RsRVPdZjTVbcY7D+xRymvPs87+TFhep+pk2G/wxXq9zl63uIrF4Jz3OF661opN5EP09rPnUVYn+2F1Kr737+envPbxEJ902PFtwGu3tEhr7Pnsm+o2490H9vr0i1jH/QPpvBKI8yiYn3tZxi6tt584dtS1IqP6lWFt/RbXOS+uk+B++vgQcnmd6HTC696qOuJ6U3HH586GFCQ+t5+bruDnuyGnKcP6nw/F58vYzGTO+cMXV22V5hGmZiwD7p8z0pq3gM0DfNKaMfGFzB9aDVnDghsxls98lrehDSMWrXNdpPFoJWYP2ImXHrkK4HMIizmWY7uypG1E3CNcccdLp2L83qf5fr7CoKk7lZOksHwOir9swQFiWjLdHTMYrAGbtn0wVh9V30t41Y8eNgd1QVEJxhatxpYLb1YnA5Jmmwz6p9Tplpd1Akbg08s28/q0j+fiqph1HNj82Lt8JNFgLK4qwSWHjqLVEV88WolnxhzD4SOpnfbplNd57MT8/F6460dFzs6VP/kuVPR1a9IhnfJSGL/08PILcEa7TeKlo3DVoVorw0tJdh+cGsYmuhGN6orbf+/cjMMm8ZEbXpYxRswIF8NVAxPIvLLEarDFHWn8sAHIPH7IMZdHQrkpgDf+4uaxbeMnfDL9hBT3cMARd9bS6XzS+ASylu5RLiDREGwq/sj6Tq4X3R2T4a4/mlW488Zi8qZH18/19tMMfzpSZ22T4xuB7H66aWL9xhdeednk/7OwKEf4iOMZw1UDW3Fww1P88xJsaRnGZ+djsKcJd4akeOlaxAbsxH/+7u+AEh+bcfDk62PwvxlecTsJqbx5AzHw0E4+lzg7H09Kx85NgtfPbKl+KEKKzyJsP5tU/eSn/sY6OzsPy3dAZUMCIOW+lbdxE3Z5z41fgIbczfhhA/hUkawXObdlt93w5Q3E+ccjuLZOJJdwX3Tjb7oEfT5812p47YwxZaiu/yku27dHyWQiDkxF/jFsKv4PaQ0ALENxzmHsXDTS8T1j/E2X4Hze+HvGLREvHYWR337Jp+K1GwLvC6v9SFY/OuwLYSJypdRqAJtInx2ft5RH93NPPytTUDxaiR/l2HPd6SnD+pv7o3nFbfido7FmT1JvkjfIjuKMNPXp/XNGor9TEBA2m6Kamq07osv245UNqbD8bTKrUHclQEOua7yuwMqaeSwV1D1fWN+OHzYAp4Zdhu8sZ8MXsV3ZmLzl36XtluHhMV+gdsYr0ncA8AdU138PGcsuxw01vZX9sgNXgrwNfVByoMox5HEtchuq7EwfEvHStVLjL/zouAXx6IvYzhuFyr4ZHg2Brl6chKVz1o+NOOHVGCPShcBOaHm4Sjya521ow6UPbnbdbN0ki0+Qjk6dVnXfwjbsO6IOM7HYWYpAweKqEveNSnmSct78/UDFR+Gty1o6HRXfjMGi91ln5Oaju5PchJP7WcfuiQPoM+3TJDdibz+bsHV+8fLzyvZDkSSrkILXfmU6ty5AQ+6GpT+ajCs2XYgbHhvFs56wR4Fth79B78ObrYtq28ZPlMnYqYa39thJDJp6HTKW5bPt8gYqvRYxRsSGPOR8h2WamwJrxHdP6YeDj06y9uUVN8R45s/ZnMwsfnZi2PNJ249z1Hzp7UWy+klGAqtcSW0FzmEkP4RfXvtik3th+ZPfQ3yQbkhIUIbinLPWxWvPub0Rm2YNR/+ESCNmJ/4O+tO4dMsrOiIFRSW44ejF1hNiumRVb8Gutgg5L3c6pFteJ6n62dmQ1Gw/3n5yViH9OzoZb7/gdKSf77NINlEb1KPYuYg1DPfPGYmBn+5kDebur62J4eEY2mAN4xlrDFT4bdv4CU62NuO1V7/DhjKuvwhnpKEXARvy+JjrxFh9k9VQCz/2gqk/Dj462rqhJBJi7NsRtzV+WYb1Px+Bk69nWwc+wcet2QkxSXmcu/7Rq3lUThL8P/mzWHJ+L61L6A5WAts2HsTJ1gN47dUhSEj1I15yUWPkqt98Kamtut+x5ddaw0ipxqcrY7p+7GnoXfsYIiGNkZ/iOvZSdyx/sZv3xAGcbP0AK8bdhB/OmsyPG1snEn+Lx/DU45M/BSkvGwKyc3HC6nWKm4vqJ+P2YxlwvsJfXrhYr9Msu3Se5aU9vPwcwUsE8UuW7WcgvnvHZ5JfBZ6Tsgq5/aR9hVzec+XnuyGnfwazBFPf7I2SA39EY10tYgN24pe3LgV4j+r7b/aRsr98iF9O+wXAD4Z8YQq/rOp5WNh8FX/8nIviL99EAc+iYv0cr64W+ya14Mnihajsy8eurz/PSqZq+/F0Wom+uPTBZuulx7sP7qXjnvYLgOdCzE0kMGgqe6xvrKtF0zOzLG/no46+ExtxaKn6E99L6yL2u4C5Q87wHuYGrLulBVnV87Gw+Uosen8Lmqz6WeP5EuT0jArrRVFT3VzrKYSV1U6O/fKID/EkTwaRLD4ah06zrOrKsPaPW6RsSM3WT0Hjpeus8d+XB9cov6jR+/mPTyZ1P/lTsvKy9zFN9ZvRWDcOGcvycesbwySdCvNgjXuTki3qecw7IW5ktWiq34zdU06iNncG/kUZVnSUQ7Ps0nmWl/bw8lNWKdB+g6YeU35SOe9EwpENyZntZwnPhtSMRunntU1SViHmJ97RtW95z5lfx/+Jfgwra2bjO8vtXnI6dIUsJPGelDWnJ5W1C5x75xJTPx2H7ytN/yigQulUfQXuvPEmKR+gc71KMr+spdMxauYyUkdB6Sg9paOgdLTeraPw60fpKCgdpad0FJSO0lM6CkpH6SkdBaWj9JSOgtJRekpHQekoPaWjoHSUntJRUDpKT+mSEYYfpaP0lI6C0lF6SkdB6Sg9paOgdJT+HPTIDQaDwRAmvnvkBoPBYOicBGjIfXXcjU6L0dEYHY3R0RgdRYCG3GAwGAydkQANufZ3MA6MjsboaIyOxuhojI4iQENuMBgMhs6I74Y87BxzPckvHq3Etk3PYt4JNvFTun4IOT6E6BePrsK2Tc/hp21nQvGjtussfnIGnDD8wo7vXPs5MwSl6yfWUcs93c93Qx6JRKxufoT/c34v1lHLTENv1xP8xGehS9cv7PjC8hOnVFh+1Hadx0/6FIofvV1X9pMJwy/s+LqLn++GXIc8V7CaaYdBZQiSYb1VeztnhiAn4k+TKS/w/dnr3BmCBPq47cw09H7UDEHthVVvRIYgr/qhsMvqjlm3n45CLo/z/El27lB4lVV/zDsKcT6q5yJSLKtuG3GNsP/c++qsqNeuX9wZgnoivhtypftvdfFTyxAkvBKOZBBskit9Bpx4dBWZ4UV4xaOrMHvATqx+5EpAkyHopyfO+MoQNLZokpQh6JS1L2eGIP2jj8xZ9bFKqwMSvjIEXYexRZOs+vHyi5euxb6FbVj+eDNa5Rs6sR9/8fkprzgiyfxiqLg+zo/3atRn5FtZcwrLa3DHmf9BQVEJxhZtxfFpn2LdLYcADz9W1laprLaOzWjZD9svm4CxRZMwevJCa7IxnR98ltcurb687CaiZvsROrmsLBsSK6uXn9iGZc2yt4nzKXvFNZS3oQ1X/OSZpPEJwiovhU4ne4nPOvzogsTXXfx8N+RK95//P9UMQcLrdPRFHxmCRBaVGCruvoLM8CL87p9zJVprrseLfVnDRGUIiiDiK0NQBBFpaldeXiJDkP7RRyZDeQzS64AIKnxkCOqNCOZb9SNyNYoep9yryVo6HfmT73IlWmBTJaj78Refn/KKI5LMrwJ33jiTH+8KrNwvbphsdkwxEdrp6FAMQV9cOuVegPtRGYJYWe+Wymrv9/45I3lSkCwpumTx+SuvHz8q2w/TqWVlUyqzsur97G0iiCjbZFUfwVEMtbIp3V+QjVOff5w0PkFY5aXQ6WQv8VlGfpKS89jqMgQJP7Ze3caJ134FQcp7rvx8N+QUnpl28gbi/OMILUOQPrGDoAxBMwSJ3m9YGYJ0d8yw8Kqfc0G45WVzvrPyjUB2v+P4ywvZbD75+/rhQGMqj84iPpY67vAle+whB82F7UW45RV+qZTVa5sliE54ER9N/hKNdbWYtn0wT10YnPYpb3B0GYKenFHkkSGoJnCGoFTj09GRfgEacp0JnWmHZQjK9cgQpEsG4cyAk8DfZ7+YNMMLlahCoGYIEuW4Ar8h4hbEo6t8Zgiy60V3x2To6s9JMp2on1yfGYKS+QWlfcq7uCrmqt+/Pr0e+ya1YMW4mXjS8URBZQhiyPsV24xAdr++KLyowRq+OFA43+fYcdjltZH9vMqqg21zxLFNDCtr5vHE1VtxfNoX/KblN76OKa8bLz86Q5DeL0iGoLDLe278AjTkbrwy7YSZISjvB99NkuFFd1NgjXhqGYIu95khaK+0t/ZFrZ9hgTMEdVYWV22V5oQHgGYcaxuK6TccteZIL8nu49gqCM041nZCmrN+Cba0nGflBD23pFJW/Tbx0qmYcHYXH9Jcgqm/akZrYdT1NNyV0GUI8iZ4hqCujJ8a4bjvBnamHTacYWfaCZYhSMAyBLEMOOxF2EU482EtHllo55YsIDK8ODMECdjLwf44+OgYae5zMfatiZvIECTGk+0Y7Mc5/yeHu/5o9Dq1fua7MihRY+Refqnh18+frrD8bcQG7LQaJAYbLxdli0cr8aOcb5XzhRojZ1D7rcC+r/vj0in/yj+XoTjn2ySp4wSUH4VfnRO/ZZV/fSJvk6lus/tr/O28wSg4zpNV5w3E+d9+hcZBvSw/b/yWw6/OL95+yTMEibSP4PVjZwjyxnu/Np1bF6AhpxCZdlhPWe5VBckQJGAZglgGHDtDkD2+R48RuTMEWd9bGYL2W2OjrJHTx01lCPI7nkrHFxw6Q9CRpPVDIRr33fflWk814klGtx+/pFte9vK4F870z+Nlst+lNCx4hSWK5vk37acjPV5lXT6jwvJrrJuIQT78nKRXXjE8IGf7eRbzTpxNqazUNre+kYOs6nm4Z2e2dW7vnnISb4++I6UkH+mV140fP/m6Ez8RVTMEHXXk7BQZgtg1Lo53g5QhSD6vvPATXxA60s/3fOSZmXYKsAQS0niN2JyvSyT4j9p1uvk8Q9Ao61cjtM6fX7x0Hfbnb8fVM8tCis+9zlPnwy8erUTDwlaUFy9EZd8MrQ4+/ZzrPHUd7BePvoiGhW14vvhO69dDlM6vX9jxheknzj2R2CRdP0XXDfzipWuxf/R2jJpl50aldM51nroQ40M38vN9m7YN1GVmJK2TVykIHcsQJBpxtiZ1P5EhKLz4xCd62aXz6afzdur8+oUdn/GzP/n3kz+F4Ud7dGU/ZZVCan5hx9dt/Pz2yE2GIIPBYOic+O6RJ6yuvLrshNJRekpHQekoPaWjoHSUntJRUDpKT+koKB2lp3QUlI7SUzoKSkfpKR0FpaP0lI6C0lF6SkdB6Sg9paOgdJSe0lFQOkpP6SgoHaWndBSUjtJTOgpKR+kpHQWlo/SUjoLSUXpKR0HpKL3pkRsMBkMXx3eP3GAwGAydkwANua+Ou9FpMToao6MxOhqjowjQkBsMBoOhMxKgIdf+DsaB0dEYHY3R0RgdjdFRBGjIOw+pTUBvMHQ9nOnSDAYK3w15IuQcc6n6iQn1b3js6lD8oFws9HZB/cSnc+F376t21hhn0olU/Kj4CstrXN52phY2p3gQP2pZjS+GlTUbISeW0PmJnKHzTpz18As7vvbzy1o6XUmwkq6f0FHfi3XUsvHr3H6+G3L2Z6Ksmx/h/5zfi3XUMtPQ2/n1Ox2Vp7NN30+NT3zj3i41P6ajtmsvv3i0ErMu2IkV4/gEXzxBhu0QzM/5vVhHLdu4t0vNj+nU79jp6uUnn9JefmHH155+y2fUWtPuhuEXdnzGj/boWL8u9DvywvIaVJxe6Zgois+/zGdEy2zdbc2kt7hqE8Z99leMHpvNpDuetbZlU9Xmoj8vfe/Db1mzKepgU+IO5p/apFkV1Rjk/ejRb+MVtxfx0rXW3B8yheU1qMhns9/J9cPq82McKLwauYmEso7CWWcMUQ+VqK6/HK2NF2L02CxH/fC0f0P4jHw+y6NsI/mp37egNncGFuXcqdanwNqXWt/H18uzW9Lo6+f21M455fyBvkxE/dDnvsHAoK9YAqX7r3TxVfSPAjbCK5gfPfUtUIGf3TgRY4smYWzRJMxtvtLK+wj0w9iRn2PFuGLkPXGAz8t8ypWzM2/DV4ojHR+bZdGe43gKbntjKBJIYHFVzMrzSWUjofzENs4MJkzD4n5q3EQpbnvmNqdfPLqKzfo3ZbA0Zzqb7S1euharR3yIFeOKrfqR86rimgvw6WXXYmzRJFR8MwY/eWSf5eskq3oerpswCbFdp4Edz/Lysnpg5KDworfZfnZlWdOIjvXI1iLvS15Wc3aKOahZw8kyw7AphfM29OEJS9hUw3lPfIyTrbut8to3xxhLIhIgBygg6uc6FBSVWPXjnNb4x/ycs4/dZ45zLs7OuZv74+Cj7JxbfTQT2FGB294Yqs1mI58v2w5/I6U9tNHVn4zzfNHpYPyUdYKu4Oe7IVe6/0oXX0X/KGAjvIL66bi3qg5NdZvRVLfZ6nkKvuCJnVkuQ/Y44szZ6YSOj89p/eB+pZFmuTNbcXDDU5Zu5f5TGDT8EQ8/exuGvY3QfMFzj9px2zj9sqrnY8IEdkPqffgt3iCw7Dnjhw2w5rqOIOJK8IEdIgdoBMtnTMQNj42yfCnkdW5dCzYV/wciiOC9w9/w72K4yyNbC+2n5rG0Fex0HVf+tvUeQO3h2hoofmUozjlrTZHaVDcRuYmEMlSjZYfIIQurfuDIYL+an3P2sbvBcc7JOC85fTYb4RdBBNj9NZnWj64/lYj0T3zWYfzcdAU/51kVKro7SJjES9di7pBDVs6+2K7TTomWoPEtnzERBUUleP37X6HRmtvcJqhfMrqPn79sLX782Bzmpy0/59OUjOrXYp0j7D/5ScIfwi+1c64Zx9pYR6CRz4H/1O3/xdf5qJ+8gVJiFho/9RcE45ceHemnPytc6E3UDCa2LoII77m4J3UXwwHJkzYIP5b1w87yYpPZ+hUaB2XwlG/OHI5OElb2ol+3nOaPvBc6RZ7lXT5jImK7TvNe9yor+wy7Y7IYWBJhGdnPnbHG3katPz36+GTkR/IIIrh/zkhNg+DPT+h6X3x5kvgEybK1UOVV66ewfI5j7JslHhZZpFTO4gzPkGP7LcGWlmEoqZoj6fyW10YuLzvnMn2ec0A8WoyCs7uwYhzrDORPvovP166rHzU+O9G5E6r+KPyW1/jRdG4/59Xcqdm28RPXeHHW0vWoz8jHove3orFuBFob2c/fvMiqnof/bhnOs6iMwAdvuJMvu5ETwNaiIv+YlSOU/argHr5uInIbnnH3qByksk0qZC29DRXfjLEy8Ki5MVOjYcGfsG/4FB578qxCqWRrkbPCVJx+x8oKox67mTjvw8+U7bKqY9J6u6Og1redfSYV7HNuS4BzbgsarfNUjSF5/ZTh4TGnifdDBgOjS/1qBbz3//LgGtcvMwyGzoz7F0VlqK7/np1o3IPFVVvZy1DzixWDhnZtyBNKaqL0EX6Lq7Zi2vbBafdg2yu+sDB+6dG5/MpQXV/MX7Iy/PwE0n0D0JNefG6MX3p0pJ/vhjy8nJ3udZ4640frjB+tM360zvjRum7i53uM3DZQl5mRtE5epeDQaZZdOuPHMX7Usktn/DjGj1p26bqJn++G3D+6AFPF+KWH8UsP45cexi89/Pn5bsgTVldeXXZC6Sg9paOgdJSe0lFQOkpP6SgoHaWndBSUjtJTOgpKR+kpHQWlo/SUjoLSUXpKR0HpKD2lo6B0lJ7SUVA6Sk/pKCgdpad0FJSO0lM6CkpH6SkdBaWj9JSOgtJRekpHQekoPaWjoHSU3vcYeSovOw0Gg8HQ/vjukRsMBoOhcxKgIffVcTc6LUZHY3Q0RkdjdBQBGnKDwWAwdEYCNOT6N6YqRkdjdDRGR2N0NEZHEaAhNxgMBkNnxHdDngg5x5zxc38v1lHLxs/4Ob8X66hl49ez/MzPDw0Gg6GL47tHbjAYDIbOie+GXOn+K118Ff2jgI3wMn5ujJ8b40frYPyUdYKe6GeGVgwGg6GL47tHngq6O0iqGL/0MH7pYfzSw/ilh5dfgIZcb6Ji67xm6zJ+OowfjfGjMX40PcsvQENuMBgMhs5IgIZcfzdQMToao6MxOhqjozE6igANeXC8xnRSwfilh/FLD+OXHsYvPbz8/h/Nw4WtCiDGHQAAAABJRU5ErkJggg==;" vertex="1" parent="1">
                    <mxGeometry x="-680" y="424.5" width="370" height="95" as="geometry"/>
                </mxCell>
                <mxCell id="22" style="edgeStyle=none;html=1;exitX=0;exitY=0.5;exitDx=0;exitDy=0;" edge="1" parent="1" source="20" target="8">
                    <mxGeometry relative="1" as="geometry"/>
                </mxCell>
                <mxCell id="23" style="edgeStyle=none;html=1;exitX=1;exitY=0.5;exitDx=0;exitDy=0;" edge="1" parent="1" source="20" target="11">
                    <mxGeometry relative="1" as="geometry"/>
                </mxCell>
                <mxCell id="20" value="" style="rhombus;whiteSpace=wrap;html=1;verticalAlign=top;labelBackgroundColor=default;" vertex="1" parent="1">
                    <mxGeometry x="-885" y="432" width="80" height="80" as="geometry"/>
                </mxCell>
                <mxCell id="24" style="edgeStyle=none;html=1;exitX=0.5;exitY=1;exitDx=0;exitDy=0;entryX=0.469;entryY=0.042;entryDx=0;entryDy=0;entryPerimeter=0;" edge="1" parent="1" source="20" target="9">
                    <mxGeometry relative="1" as="geometry"/>
                </mxCell>
            </root>
        </mxGraphModel>
    </diagram>
</mxfile>